<svg width="110" height="38" viewBox="0 0 110 38" fill="none" xmlns="http://www.w3.org/2000/svg">
<path d="M100.12 1H8.6L7.77 1.01C7.17 1.02 6.57 1.07 5.97 1.17C4.76712 1.36447 3.65604 1.93283 2.79444 2.79444C1.93283 3.65604 1.36447 4.76712 1.17 5.97C1.07 6.57 1.02 7.17 1.01 7.77L1 8.6V29.4L1.01 30.23C1.02 30.83 1.07 31.43 1.17 32.03C1.37845 33.2278 1.94705 34.3336 2.8 35.2C3.22 35.63 3.71 35.99 4.25 36.26C4.78822 36.5346 5.36466 36.7267 5.96 36.83C6.56 36.93 7.16 36.98 7.76 36.99H101.93C102.53 36.98 103.13 36.93 103.73 36.83C104.325 36.7254 104.901 36.5334 105.44 36.26C105.98 35.9872 106.473 35.6293 106.9 35.2C107.327 34.7752 107.685 34.2859 107.96 33.75C108.24 33.21 108.42 32.63 108.52 32.03C108.62 31.43 108.68 30.83 108.69 30.23V7.77C108.678 7.16661 108.621 6.56495 108.52 5.97C108.421 5.37494 108.232 4.79838 107.96 4.26C107.404 3.17716 106.523 2.29582 105.44 1.74C104.901 1.46623 104.325 1.27413 103.73 1.17C103.135 1.0705 102.533 1.01701 101.93 1.01H101.1L100.12 1Z" fill="#A6A6A6"/>
<path d="M8.59999 36.21H7.78999C7.22372 36.202 6.65883 36.1519 6.09999 36.06C5.58124 35.9683 5.07905 35.7998 4.60999 35.56C4.14753 35.3252 3.72554 35.018 3.35999 34.65C2.98653 34.2831 2.67574 33.8575 2.43999 33.39C2.20154 32.9213 2.03629 32.4188 1.94999 31.9C1.85722 31.3413 1.80708 30.7764 1.79999 30.21L1.78999 29.39V8.60004L1.79999 7.80004C1.79999 7.23004 1.85999 6.67004 1.94999 6.11004C2.03576 5.58795 2.20101 5.08208 2.43999 4.61004C2.79799 3.91015 3.31598 3.30454 3.9519 2.84237C4.58783 2.38019 5.32377 2.07448 6.09999 1.95004C6.65999 1.85004 7.21999 1.80004 7.79999 1.80004L8.59999 1.79004H101.91C102.47 1.81004 103.03 1.86004 103.59 1.95004C104.11 2.04004 104.62 2.20004 105.09 2.44004C106.023 2.92229 106.782 3.68461 107.26 4.62004C107.5 5.08004 107.66 5.58004 107.75 6.10004C107.89 6.92558 107.94 7.76374 107.9 8.60004L107.91 9.58004V29.4L107.9 30.23C107.89 30.79 107.84 31.35 107.75 31.9C107.664 32.4222 107.499 32.9281 107.26 33.4C107.024 33.862 106.717 34.2838 106.35 34.65C105.982 35.0224 105.557 35.3331 105.09 35.57C104.61 35.81 104.11 35.97 103.59 36.07C103.03 36.16 102.47 36.21 101.9 36.21L101.1 36.22H8.59999V36.21Z" fill="black"/>
<path d="M39.07 25.43H34.81L33.79 28.45H31.99L36.02 17.27H37.89L41.93 28.45H40.09L39.07 25.43ZM35.25 24.03H38.63L36.96 19.13H36.92L35.25 24.03ZM50.65 24.37C50.65 26.9 49.29 28.53 47.25 28.53C46.7314 28.5591 46.2151 28.4413 45.7605 28.1901C45.3059 27.9389 44.9314 27.5645 44.68 27.11H44.64V31.14H42.97V20.3H44.59V21.65H44.62C44.8823 21.197 45.2628 20.8237 45.7207 20.5701C46.1786 20.3165 46.6968 20.192 47.22 20.21C49.28 20.21 50.64 21.85 50.64 24.37H50.65ZM48.93 24.37C48.93 22.72 48.07 21.64 46.77 21.64C45.49 21.64 44.63 22.74 44.63 24.37C44.63 26.01 45.49 27.11 46.77 27.11C48.07 27.11 48.92 26.04 48.92 24.37H48.93ZM59.61 24.37C59.61 26.9 58.26 28.53 56.21 28.53C55.6931 28.5572 55.1789 28.4384 54.7262 28.1873C54.2735 27.9362 53.9006 27.5629 53.65 27.11H53.61V31.14H51.94V20.3H53.56V21.65H53.59C53.8523 21.197 54.2328 20.8237 54.6907 20.5701C55.1486 20.3165 55.6668 20.192 56.19 20.21C58.25 20.21 59.61 21.85 59.61 24.37ZM57.89 24.37C57.89 22.72 57.04 21.64 55.74 21.64C54.46 21.64 53.6 22.74 53.6 24.37C53.6 26.01 54.46 27.11 55.74 27.11C57.04 27.11 57.89 26.04 57.89 24.37V24.37ZM65.54 25.33C65.66 26.44 66.74 27.17 68.21 27.17C69.62 27.17 70.64 26.44 70.64 25.44C70.64 24.57 70.02 24.05 68.58 23.7L67.13 23.35C65.07 22.85 64.13 21.89 64.13 20.34C64.13 18.41 65.8 17.08 68.19 17.08C70.55 17.08 72.17 18.41 72.22 20.34H70.54C70.44 19.22 69.51 18.54 68.16 18.54C66.82 18.54 65.89 19.23 65.89 20.22C65.89 21.02 66.49 21.48 67.92 21.83L69.16 22.13C71.45 22.68 72.4 23.6 72.4 25.23C72.4 27.33 70.74 28.63 68.09 28.63C65.61 28.63 63.93 27.35 63.83 25.33H65.54ZM76 18.37V20.3H77.55V21.62H76V26.12C76 26.82 76.31 27.14 77 27.14C77.18 27.14 77.36 27.12 77.54 27.1V28.42C77.2332 28.4747 76.9216 28.4982 76.61 28.49C74.96 28.49 74.32 27.87 74.32 26.29V21.62H73.14V20.3H74.32V18.37H76ZM78.45 24.37C78.45 21.81 79.95 20.2 82.31 20.2C84.68 20.2 86.18 21.8 86.18 24.37C86.18 26.94 84.68 28.55 82.31 28.55C79.94 28.55 78.45 26.95 78.45 24.37V24.37ZM84.47 24.37C84.47 22.61 83.67 21.57 82.31 21.57C80.95 21.57 80.15 22.62 80.15 24.37C80.15 26.14 80.95 27.17 82.31 27.17C83.67 27.17 84.47 26.14 84.47 24.37ZM87.56 20.3H89.16V21.69H89.19C89.2958 21.255 89.5488 20.8701 89.906 20.6003C90.2632 20.3306 90.7027 20.1927 91.15 20.21C91.35 20.21 91.54 20.23 91.72 20.28V21.84C91.4771 21.7662 91.2238 21.7324 90.97 21.74C90.7279 21.7314 90.4868 21.775 90.263 21.8678C90.0393 21.9605 89.8381 22.1003 89.673 22.2777C89.508 22.455 89.3831 22.6658 89.3066 22.8956C89.2302 23.1255 89.2041 23.3691 89.23 23.61V28.45H87.56V20.3ZM99.44 26.05C99.21 27.53 97.77 28.55 95.93 28.55C93.56 28.55 92.09 26.95 92.09 24.41C92.09 21.86 93.57 20.2 95.86 20.2C98.11 20.2 99.53 21.75 99.53 24.22V24.79H93.77V24.89C93.7442 25.19 93.7826 25.4921 93.8826 25.7761C93.9826 26.0601 94.142 26.3196 94.3502 26.5372C94.5583 26.7548 94.8105 26.9256 95.0898 27.0381C95.3691 27.1507 95.6691 27.2024 95.97 27.19C96.3643 27.2276 96.7603 27.137 97.099 26.9316C97.4377 26.7263 97.7011 26.417 97.85 26.05H99.44ZM93.78 23.62H97.86C97.8752 23.3501 97.8345 23.0799 97.7403 22.8266C97.6461 22.5732 97.5005 22.342 97.3127 22.1476C97.1248 21.9532 96.8988 21.7997 96.6488 21.6969C96.3988 21.594 96.1303 21.544 95.86 21.55C95.587 21.5473 95.3161 21.599 95.0632 21.7019C94.8103 21.8049 94.5804 21.9571 94.3868 22.1497C94.1933 22.3423 94.04 22.5715 93.9358 22.8239C93.8316 23.0763 93.7787 23.3469 93.78 23.62V23.62ZM35.04 8.85997C35.3909 8.83507 35.7429 8.88825 36.0707 9.01569C36.3986 9.14313 36.6941 9.34165 36.9361 9.59698C37.178 9.85231 37.3603 10.1581 37.47 10.4923C37.5796 10.8266 37.6137 11.1809 37.57 11.53C37.57 13.24 36.64 14.23 35.04 14.23H33.1V8.85997H35.04ZM33.94 13.46H34.95C35.1993 13.4742 35.4486 13.4329 35.6801 13.3393C35.9116 13.2456 36.1194 13.1018 36.2887 12.9182C36.4579 12.7346 36.5844 12.5158 36.659 12.2775C36.7335 12.0392 36.7544 11.7873 36.72 11.54C36.7525 11.293 36.7304 11.0418 36.6551 10.8043C36.5799 10.5668 36.4533 10.3488 36.2845 10.1656C36.1156 9.98242 35.9086 9.8386 35.6779 9.74431C35.4473 9.65002 35.1988 9.60757 34.95 9.61997H33.94V13.47V13.46ZM38.51 12.2C38.491 11.9368 38.5264 11.6726 38.614 11.4238C38.7016 11.175 38.8396 10.9469 39.0192 10.7537C39.1989 10.5606 39.4165 10.4065 39.6584 10.3012C39.9002 10.1959 40.1612 10.1415 40.425 10.1415C40.6888 10.1415 40.9498 10.1959 41.1916 10.3012C41.4335 10.4065 41.6511 10.5606 41.8307 10.7537C42.0104 10.9469 42.1484 11.175 42.236 11.4238C42.3236 11.6726 42.359 11.9368 42.34 12.2C42.359 12.4631 42.3236 12.7273 42.236 12.9761C42.1484 13.225 42.0104 13.4531 41.8307 13.6462C41.6511 13.8394 41.4335 13.9934 41.1916 14.0987C40.9498 14.2041 40.6888 14.2584 40.425 14.2584C40.1612 14.2584 39.9002 14.2041 39.6584 14.0987C39.4165 13.9934 39.1989 13.8394 39.0192 13.6462C38.8396 13.4531 38.7016 13.225 38.614 12.9761C38.5264 12.7273 38.491 12.4631 38.51 12.2V12.2ZM41.51 12.2C41.51 11.32 41.11 10.8 40.43 10.8C39.73 10.8 39.33 11.32 39.33 12.2C39.33 13.09 39.73 13.6 40.43 13.6C41.12 13.6 41.51 13.08 41.51 12.2ZM47.41 14.23H46.59L45.75 11.24H45.69L44.85 14.23H44.03L42.91 10.18H43.72L44.45 13.27H44.51L45.34 10.17H46.11L46.94 13.27H47.01L47.73 10.17H48.53L47.41 14.23ZM49.47 10.18H50.24V10.82H50.3C50.4008 10.5904 50.5704 10.3979 50.7854 10.2689C51.0003 10.1399 51.25 10.0809 51.5 10.1C51.697 10.0846 51.8949 10.1136 52.0792 10.1849C52.2634 10.2562 52.4294 10.3679 52.5647 10.5119C52.7 10.6558 52.8013 10.8283 52.861 11.0167C52.9208 11.205 52.9375 11.4043 52.91 11.6V14.23H52.11V11.8C52.11 11.14 51.83 10.82 51.24 10.82C51.1057 10.8134 50.9715 10.836 50.8468 10.8863C50.722 10.9366 50.6097 11.0133 50.5175 11.1113C50.4252 11.2092 50.3554 11.3259 50.3126 11.4535C50.2699 11.581 50.2554 11.7163 50.27 11.85V14.22H49.47V10.18ZM54.18 8.58997H54.98V14.23H54.18V8.58997ZM56.1 12.2C56.0726 11.9327 56.1016 11.6627 56.1851 11.4074C56.2687 11.152 56.4048 10.9171 56.5848 10.7177C56.7649 10.5183 56.9847 10.3589 57.2302 10.2497C57.4757 10.1406 57.7414 10.0843 58.01 10.0843C58.2786 10.0843 58.5443 10.1406 58.7898 10.2497C59.0353 10.3589 59.2551 10.5183 59.4352 10.7177C59.6152 10.9171 59.7513 11.152 59.8349 11.4074C59.9184 11.6627 59.9474 11.9327 59.92 12.2C59.9474 12.4672 59.9184 12.7372 59.8349 12.9926C59.7513 13.2479 59.6152 13.4829 59.4352 13.6823C59.2551 13.8817 59.0353 14.0411 58.7898 14.1502C58.5443 14.2593 58.2786 14.3157 58.01 14.3157C57.7414 14.3157 57.4757 14.2593 57.2302 14.1502C56.9847 14.0411 56.7649 13.8817 56.5848 13.6823C56.4048 13.4829 56.2687 13.2479 56.1851 12.9926C56.1016 12.7372 56.0726 12.4672 56.1 12.2ZM59.1 12.2C59.1 11.32 58.7 10.8 58 10.8C57.31 10.8 56.92 11.32 56.92 12.2C56.92 13.09 57.32 13.6 58.01 13.6C58.71 13.6 59.1 13.08 59.1 12.2V12.2ZM60.76 13.08C60.76 12.35 61.3 11.93 62.26 11.88L63.36 11.81V11.46C63.36 11.03 63.08 10.79 62.54 10.79C62.09 10.79 61.78 10.95 61.69 11.24H60.92C61 10.54 61.65 10.1 62.57 10.1C63.59 10.1 64.17 10.6 64.17 11.46V14.23H63.39V13.66H63.33C63.2021 13.8656 63.0215 14.0334 62.807 14.1459C62.5926 14.2584 62.3519 14.3116 62.11 14.3C61.9392 14.3183 61.7665 14.3003 61.6031 14.2472C61.4398 14.1942 61.2894 14.1072 61.162 13.9921C61.0346 13.8769 60.9329 13.7361 60.8636 13.5789C60.7943 13.4218 60.759 13.2517 60.76 13.08V13.08ZM63.36 12.74V12.4L62.38 12.46C61.82 12.5 61.57 12.69 61.57 13.05C61.57 13.41 61.88 13.62 62.32 13.62C62.4472 13.6337 62.5759 13.6217 62.6983 13.5845C62.8207 13.5473 62.9344 13.4858 63.0324 13.4036C63.1305 13.3214 63.2109 13.2203 63.2689 13.1062C63.3269 12.9922 63.3613 12.8676 63.37 12.74H63.36ZM65.21 12.2C65.21 10.92 65.87 10.1 66.9 10.1C67.1537 10.0902 67.4049 10.1527 67.6244 10.2802C67.8439 10.4076 68.0227 10.5948 68.14 10.82H68.2V8.58997H69V14.23H68.23V13.59H68.17C68.0424 13.8115 67.8566 13.9938 67.6327 14.1172C67.4088 14.2406 67.1554 14.3004 66.9 14.29C65.87 14.29 65.21 13.49 65.21 12.2ZM66.04 12.2C66.04 13.06 66.44 13.58 67.12 13.58C67.8 13.58 68.22 13.05 68.22 12.2C68.22 11.36 67.79 10.83 67.12 10.83C66.45 10.83 66.04 11.35 66.04 12.2ZM72.31 12.2C72.2826 11.9327 72.3116 11.6627 72.3951 11.4074C72.4787 11.152 72.6148 10.9171 72.7948 10.7177C72.9749 10.5183 73.1947 10.3589 73.4402 10.2497C73.6857 10.1406 73.9514 10.0843 74.22 10.0843C74.4886 10.0843 74.7543 10.1406 74.9998 10.2497C75.2453 10.3589 75.4651 10.5183 75.6452 10.7177C75.8252 10.9171 75.9613 11.152 76.0449 11.4074C76.1284 11.6627 76.1574 11.9327 76.13 12.2C76.1574 12.4672 76.1284 12.7372 76.0449 12.9926C75.9613 13.2479 75.8252 13.4829 75.6452 13.6823C75.4651 13.8817 75.2453 14.0411 74.9998 14.1502C74.7543 14.2593 74.4886 14.3157 74.22 14.3157C73.9514 14.3157 73.6857 14.2593 73.4402 14.1502C73.1947 14.0411 72.9749 13.8817 72.7948 13.6823C72.6148 13.4829 72.4787 13.2479 72.3951 12.9926C72.3116 12.7372 72.2826 12.4672 72.31 12.2ZM75.31 12.2C75.31 11.32 74.91 10.8 74.21 10.8C73.52 10.8 73.13 11.32 73.13 12.2C73.13 13.09 73.53 13.6 74.22 13.6C74.92 13.6 75.31 13.08 75.31 12.2V12.2ZM77.21 10.18H77.97V10.82H78.03C78.1314 10.5887 78.3025 10.395 78.5195 10.2658C78.7365 10.1367 78.9884 10.0787 79.24 10.1C79.4362 10.0861 79.633 10.1163 79.816 10.1883C79.999 10.2603 80.1636 10.3723 80.2978 10.516C80.432 10.6598 80.5323 10.8317 80.5915 11.0193C80.6507 11.2068 80.6673 11.4052 80.64 11.6V14.23H79.84V11.8C79.84 11.14 79.56 10.82 78.97 10.82C78.8357 10.8134 78.7015 10.836 78.5768 10.8863C78.452 10.9366 78.3397 11.0133 78.2475 11.1113C78.1552 11.2092 78.0854 11.3259 78.0426 11.4535C77.9999 11.581 77.9854 11.7163 78 11.85V14.22H77.2V10.18H77.21ZM85.16 9.16997V10.19H86.04V10.87H85.16V12.95C85.16 13.38 85.34 13.56 85.74 13.56C85.84 13.56 85.94 13.56 86.04 13.54V14.21C85.9 14.24 85.75 14.25 85.61 14.25C84.71 14.25 84.36 13.94 84.36 13.15V10.88H83.72V10.2H84.36V9.16997H85.16ZM87.13 8.58997H87.93V10.83H87.99C88.0963 10.5954 88.2725 10.3993 88.4944 10.2687C88.7164 10.138 88.9733 10.0791 89.23 10.1C89.4267 10.0877 89.6236 10.1193 89.8066 10.1925C89.9895 10.2657 90.1539 10.3786 90.2879 10.5231C90.4219 10.6676 90.5221 10.8401 90.5812 11.0281C90.6404 11.216 90.657 11.4148 90.63 11.61V14.23H89.83V11.8C89.83 11.15 89.52 10.82 88.95 10.82C88.8125 10.8093 88.6743 10.8287 88.545 10.8768C88.4157 10.9249 88.2984 11.0006 88.2014 11.0986C88.1043 11.1967 88.0297 11.3146 87.9829 11.4444C87.936 11.5741 87.918 11.7125 87.93 11.85V14.22H87.13V8.58997ZM95.29 13.13C95.1818 13.502 94.9462 13.8241 94.6245 14.0398C94.3027 14.2556 93.9152 14.3512 93.53 14.31C93.2623 14.317 92.9964 14.2656 92.7506 14.1593C92.5049 14.0529 92.2854 13.8942 92.1073 13.6943C91.9292 13.4943 91.797 13.2579 91.7197 13.0015C91.6424 12.7452 91.6221 12.475 91.66 12.21C91.6257 11.945 91.6486 11.6758 91.7271 11.4205C91.8056 11.1651 91.9379 10.9295 92.115 10.7296C92.2922 10.5297 92.5102 10.37 92.7543 10.2614C92.9983 10.1528 93.2629 10.0978 93.53 10.1C94.65 10.1 95.33 10.87 95.33 12.14V12.42H92.47V12.46C92.4574 12.6087 92.4761 12.7584 92.5249 12.8995C92.5736 13.0406 92.6514 13.1699 92.7531 13.2792C92.8548 13.3884 92.9782 13.4752 93.1155 13.5339C93.2527 13.5926 93.4007 13.6219 93.55 13.62C93.7405 13.6424 93.9334 13.6078 94.1043 13.5206C94.2752 13.4334 94.4164 13.2974 94.51 13.13H95.28H95.29ZM92.47 11.83H94.52C94.5298 11.6938 94.511 11.5571 94.4649 11.4286C94.4188 11.3001 94.3463 11.1827 94.2522 11.0838C94.158 10.985 94.0443 10.9069 93.9182 10.8546C93.7921 10.8022 93.6565 10.7768 93.52 10.78C93.3817 10.7786 93.2446 10.8049 93.1166 10.8572C92.9886 10.9095 92.8723 10.9868 92.7746 11.0845C92.6768 11.1823 92.5995 11.2986 92.5472 11.4266C92.4949 11.5546 92.4687 11.6917 92.47 11.83V11.83ZM23.3 19.27C23.3087 18.5182 23.5077 17.781 23.8784 17.127C24.2491 16.473 24.7795 15.9235 25.42 15.53C25.0134 14.95 24.4773 14.4727 23.8541 14.136C23.231 13.7992 22.538 13.6123 21.83 13.59C20.32 13.43 18.85 14.49 18.08 14.49C17.3 14.49 16.11 13.61 14.84 13.63C14.0101 13.6553 13.2011 13.8964 12.4927 14.3295C11.7842 14.7627 11.2009 15.3728 10.8 16.1C9.06 19.11 10.36 23.54 12.02 25.98C12.86 27.17 13.83 28.5 15.11 28.46C16.36 28.4 16.82 27.66 18.33 27.66C19.83 27.66 20.26 28.46 21.56 28.43C22.9 28.4 23.75 27.23 24.56 26.03C25.1578 25.1776 25.6168 24.2359 25.92 23.24C25.1408 22.9116 24.4758 22.3608 24.008 21.6564C23.5402 20.9521 23.2905 20.1255 23.29 19.28L23.3 19.27ZM20.84 11.99C21.5694 11.1134 21.9281 9.9869 21.84 8.84997C20.7256 8.97031 19.6974 9.50584 18.96 10.35C18.2299 11.1803 17.8594 12.2666 17.93 13.37C18.4878 13.3749 19.0395 13.2532 19.5435 13.0142C20.0475 12.7752 20.4908 12.425 20.84 11.99V11.99Z" fill="white"/>
</svg>
