<svg width="47" height="47" viewBox="0 0 47 47" fill="none" xmlns="http://www.w3.org/2000/svg">
<path d="M23.5 35.2786C26.6578 35.2786 29.2178 32.7187 29.2178 29.5608C29.2178 26.403 26.6578 23.8431 23.5 23.8431C20.3422 23.8431 17.7822 26.403 17.7822 29.5608C17.7822 32.7187 20.3422 35.2786 23.5 35.2786Z" fill="#990000"/>
<path d="M22.871 39.8528V46.5998H24.1289V39.8528" fill="#006699"/>
<path d="M21.0414 40.1387L23.5 35.8504L25.9586 40.1387" fill="#006699"/>
<path d="M13.1497 19.2105C11.1026 21.2576 9.70855 23.8658 9.14377 26.7052C8.57899 29.5445 8.86887 32.4876 9.97675 35.1623C11.0846 37.8369 12.9607 40.123 15.3679 41.7314C17.775 43.3397 20.605 44.1982 23.5 44.1982C26.395 44.1982 29.225 43.3397 31.6321 41.7314C34.0392 40.123 35.9154 37.8369 37.0232 35.1623C38.1311 32.4876 38.421 29.5445 37.8562 26.7052C37.2914 23.8658 35.8974 21.2576 33.8503 19.2105C29.8073 15.1675 23.7018 17.2293 22.4891 8.33478" stroke="#006699" stroke-width="4.80292"/>
<path d="M22.1849 0.11438C22.1849 0.11438 20.1265 7.83336 17.6107 10.6922C15.0949 13.5511 24.2433 7.14723 27.3309 10.4063C30.4185 13.6655 22.1849 0.11438 22.1849 0.11438Z" fill="#006699"/>
</svg>
