<svg width="42" height="42" viewBox="0 0 42 42" fill="none" xmlns="http://www.w3.org/2000/svg">
<path opacity="0.65" d="M14.44 7.02591C14.3195 8.61176 14.7607 10.1895 15.6864 11.4827C16.3611 12.3707 17.3364 12.9823 18.4296 13.2027C18.5997 13.2254 18.7728 13.2117 18.9372 13.1625C19.1017 13.1133 19.2538 13.0298 19.3836 12.9175C19.9695 12.3745 20.4097 11.693 20.6637 10.9356C20.9176 10.1782 20.9773 9.36918 20.8372 8.58271C20.3344 5.56671 18.3612 3.61071 15.8772 1.78271C15.0336 3.40948 14.5438 5.19636 14.44 7.02591V7.02591Z" fill="url(#paint0_linear_1_12)"/>
<path opacity="0.65" d="M11.0468 9.19882C11.3408 10.7618 12.1752 12.1716 13.404 13.1812C14.2855 13.8648 15.3859 14.2034 16.4992 14.1336C16.6694 14.1115 16.833 14.0534 16.9791 13.9634C17.1252 13.8733 17.2505 13.7533 17.3468 13.6112C17.7722 12.935 18.021 12.1628 18.0703 11.3654C18.1196 10.568 17.9678 9.77105 17.6288 9.04762C16.3624 6.26602 13.9504 4.88562 11.08 3.76282C10.6856 5.55219 10.6743 7.40476 11.0468 9.19882V9.19882Z" fill="url(#paint1_linear_1_12)"/>
<path opacity="0.65" d="M8.33161 12.1768C9.02023 13.6107 10.1914 14.7565 11.64 15.4136C12.6681 15.8461 13.8187 15.8887 14.876 15.5336C15.0347 15.4682 15.1777 15.3698 15.2955 15.245C15.4133 15.1202 15.5034 14.9718 15.5596 14.8096C15.7954 14.0465 15.8358 13.2364 15.6771 12.4537C15.5183 11.6709 15.1656 10.9406 14.6512 10.3296C12.7076 7.96961 10.0208 7.26161 6.95641 6.92041C7.03904 8.74991 7.5077 10.5412 8.33161 12.1768V12.1768Z" fill="url(#paint2_linear_1_12)"/>
<path opacity="0.65" d="M6.48 15.7564C7.51614 16.9627 8.94357 17.7661 10.5124 18.026C11.6174 18.1772 12.7397 17.9202 13.6688 17.3032C13.8052 17.1988 13.9179 17.0666 13.9994 16.9154C14.0809 16.7642 14.1294 16.5974 14.1416 16.426C14.172 15.6277 14.0014 14.8346 13.6454 14.1194C13.2895 13.4042 12.7596 12.7899 12.1044 12.3328C9.616 10.5556 6.8376 10.568 3.7896 11.0312C4.34294 12.7785 5.25983 14.3888 6.48 15.7564V15.7564Z" fill="url(#paint3_linear_1_12)"/>
<path opacity="0.65" d="M5.61721 19.6932C6.93039 20.5906 8.51744 20.9975 10.1004 20.8424C11.207 20.7025 12.2246 20.1637 12.9624 19.3272C13.0671 19.1912 13.1417 19.0345 13.1813 18.8675C13.221 18.7005 13.2248 18.527 13.1924 18.3584C13.0151 17.5795 12.6451 16.8575 12.1161 16.2588C11.5872 15.6602 10.9164 15.2039 10.1652 14.932C7.30121 13.8596 4.62081 14.5904 1.79601 15.826C2.78264 17.3702 4.0849 18.6882 5.61721 19.6932V19.6932Z" fill="url(#paint4_linear_1_12)"/>
<path opacity="0.65" d="M5.8032 23.7188C7.30384 24.2457 8.942 24.2278 10.4308 23.6684C11.4635 23.2469 12.307 22.4633 12.8032 21.4644C12.8691 21.3059 12.9006 21.1353 12.8956 20.9637C12.8906 20.7922 12.8493 20.6236 12.7744 20.4692C12.4016 19.7627 11.8572 19.1612 11.1914 18.7198C10.5255 18.2785 9.75952 18.0114 8.9636 17.9432C5.92 17.6484 3.52 19.048 1.1116 20.9736C2.46431 22.2094 4.0632 23.1449 5.8032 23.7188V23.7188Z" fill="url(#paint5_linear_1_12)"/>
<path opacity="0.65" d="M7.02481 27.5596C8.61011 27.6797 10.1872 27.2385 11.48 26.3132C12.368 25.6385 12.9796 24.6632 13.2 23.57C13.2227 23.3998 13.209 23.2268 13.1598 23.0624C13.1106 22.8979 13.0271 22.7458 12.9148 22.616C12.3718 22.03 11.6903 21.5899 10.9329 21.3359C10.1755 21.0819 9.36647 21.0223 8.58001 21.1624C5.56401 21.6652 3.60801 23.6384 1.78001 26.1224C3.40726 26.9662 5.19471 27.456 7.02481 27.5596V27.5596Z" fill="url(#paint6_linear_1_12)"/>
<path opacity="0.65" d="M9.2 30.9532C10.763 30.6592 12.1727 29.8248 13.1824 28.596C13.866 27.7145 14.2046 26.614 14.1348 25.5008C14.1126 25.3306 14.0546 25.167 13.9646 25.0209C13.8745 24.8748 13.7545 24.7495 13.6124 24.6532C12.9362 24.2278 12.164 23.979 11.3666 23.9297C10.5692 23.8805 9.77224 24.0323 9.0488 24.3712C6.2656 25.6376 4.8888 28.0512 3.764 30.9216C5.55348 31.3155 7.40606 31.3263 9.2 30.9532V30.9532Z" fill="url(#paint7_linear_1_12)"/>
<path opacity="0.65" d="M12.1772 33.6684C13.6109 32.9799 14.7567 31.809 15.414 30.3608C15.8465 29.3326 15.8891 28.1821 15.534 27.1248C15.4686 26.9661 15.3702 26.8231 15.2454 26.7053C15.1206 26.5874 14.9722 26.4974 14.81 26.4412C14.0469 26.2054 13.2368 26.165 12.4541 26.3237C11.6713 26.4824 10.941 26.8352 10.33 27.3496C7.97001 29.2932 7.26201 31.98 6.92081 35.0444C8.75036 34.9615 10.5417 34.4925 12.1772 33.6684V33.6684Z" fill="url(#paint8_linear_1_12)"/>
<path opacity="0.65" d="M15.7564 35.52C16.9631 34.4839 17.7668 33.0563 18.0268 31.4872C18.178 30.3822 17.921 29.2599 17.304 28.3308C17.1997 28.1945 17.0676 28.0818 16.9165 28.0003C16.7655 27.9188 16.5988 27.8703 16.4276 27.858C15.6293 27.8277 14.8361 27.9983 14.1209 28.3543C13.4057 28.7104 12.7914 29.2403 12.3344 29.8956C10.5572 32.384 10.5696 35.1624 11.0328 38.2104C12.7795 37.6569 14.3893 36.74 15.7564 35.52V35.52Z" fill="url(#paint9_linear_1_12)"/>
<path opacity="0.65" d="M19.6932 36.3823C20.5906 35.0693 20.9974 33.4824 20.8424 31.8995C20.7025 30.7929 20.1637 29.7754 19.3272 29.0375C19.1912 28.9329 19.0345 28.8582 18.8675 28.8186C18.7005 28.7789 18.527 28.7752 18.3584 28.8075C17.5795 28.9848 16.8575 29.3549 16.2588 29.8838C15.6602 30.4128 15.2039 31.0836 14.932 31.8347C13.8596 34.6983 14.5904 37.3787 15.8268 40.2031C17.3707 39.2166 18.6884 37.9144 19.6932 36.3823Z" fill="url(#paint10_linear_1_12)"/>
<path opacity="0.65" d="M23.72 36.1964C24.247 34.6958 24.2293 33.0576 23.67 31.5688C23.2484 30.536 22.4646 29.6925 21.4656 29.1964C21.3071 29.1305 21.1365 29.099 20.9649 29.104C20.7934 29.1089 20.6248 29.1502 20.4704 29.2252C19.7639 29.598 19.1623 30.1424 18.7209 30.8083C18.2796 31.4743 18.0126 32.2404 17.9444 33.0364C17.6496 36.08 19.0492 38.48 20.9748 40.888C22.2106 39.5353 23.1461 37.9364 23.72 36.1964V36.1964Z" fill="url(#paint11_linear_1_12)"/>
<path opacity="0.65" d="M27.56 34.9748C27.6805 33.3889 27.2393 31.8112 26.3136 30.518C25.6389 29.6299 24.6636 29.0184 23.5704 28.798C23.4003 28.7753 23.2272 28.789 23.0628 28.8382C22.8983 28.8873 22.7462 28.9708 22.6164 29.0832C22.0305 29.6262 21.5903 30.3076 21.3363 31.065C21.0824 31.8224 21.0227 32.6315 21.1628 33.418C21.6656 36.434 23.6388 38.39 26.1228 40.218C26.9664 38.5912 27.4562 36.8043 27.56 34.9748V34.9748Z" fill="url(#paint12_linear_1_12)"/>
<path opacity="0.65" d="M30.9532 32.8008C30.6593 31.2378 29.8248 29.828 28.596 28.8184C27.7146 28.1348 26.6141 27.7962 25.5008 27.866C25.3306 27.8882 25.167 27.9462 25.0209 28.0362C24.8748 28.1263 24.7495 28.2463 24.6532 28.3884C24.2278 29.0646 23.979 29.8368 23.9297 30.6342C23.8804 31.4316 24.0322 32.2286 24.3712 32.952C25.6376 35.7352 28.0512 37.112 30.9212 38.2368C31.3152 36.4473 31.3261 34.5948 30.9532 32.8008V32.8008Z" fill="url(#paint13_linear_1_12)"/>
<path opacity="0.65" d="M33.6684 29.8228C32.9797 28.3889 31.8086 27.2431 30.36 26.586C29.3319 26.1535 28.1813 26.1108 27.124 26.466C26.9654 26.5315 26.8225 26.6299 26.7047 26.7547C26.5869 26.8795 26.497 27.0278 26.4408 27.19C26.205 27.9531 26.1646 28.7631 26.3233 29.5459C26.4821 30.3286 26.8348 31.059 27.3492 31.67C29.2928 34.03 31.9796 34.738 35.044 35.0792C34.9612 33.2496 34.4924 31.4583 33.6684 29.8228V29.8228Z" fill="url(#paint14_linear_1_12)"/>
<path opacity="0.65" d="M35.52 26.2432C34.4839 25.0365 33.0563 24.2328 31.4872 23.9728C30.3822 23.8216 29.2599 24.0786 28.3308 24.6956C28.1945 24.7999 28.0818 24.932 28.0003 25.083C27.9188 25.2341 27.8703 25.4008 27.858 25.572C27.8275 26.3705 27.9981 27.1638 28.3541 27.8791C28.7102 28.5945 29.2402 29.2089 29.8956 29.666C32.384 31.4432 35.1624 31.4308 38.2104 30.9676C37.657 29.2206 36.7401 27.6105 35.52 26.2432Z" fill="url(#paint15_linear_1_12)"/>
<path opacity="0.65" d="M36.3828 22.306C35.0697 21.4086 33.4828 21.0018 31.9 21.1568C30.7934 21.2967 29.7758 21.8354 29.038 22.672C28.9334 22.808 28.8588 22.9647 28.8192 23.1317C28.7797 23.2987 28.776 23.4722 28.8084 23.6408C28.9859 24.4194 29.356 25.1411 29.8848 25.7395C30.4136 26.338 31.0843 26.7941 31.8352 27.066C34.6984 28.1384 37.3792 27.4076 40.2036 26.1712C39.2169 24.6277 37.9148 23.3105 36.3828 22.306V22.306Z" fill="url(#paint16_linear_1_12)"/>
<path opacity="0.65" d="M36.1968 18.2804C34.6962 17.7535 33.058 17.7714 31.5692 18.3308C30.5365 18.7524 29.693 19.5362 29.1968 20.5352C29.1309 20.6937 29.0995 20.8643 29.1044 21.0359C29.1094 21.2074 29.1507 21.376 29.2256 21.5304C29.5985 22.2369 30.1428 22.8384 30.8086 23.2798C31.4745 23.7211 32.2405 23.9882 33.0364 24.0564C36.08 24.3512 38.48 22.9516 40.8884 21.026C39.5357 19.7901 37.9368 18.8544 36.1968 18.2804V18.2804Z" fill="url(#paint17_linear_1_12)"/>
<path opacity="0.65" d="M34.9752 14.44C33.3899 14.3199 31.8128 14.7611 30.52 15.6864C29.632 16.3611 29.0205 17.3364 28.8 18.4296C28.7774 18.5998 28.7912 18.7728 28.8404 18.9373C28.8896 19.1017 28.9732 19.2539 29.0856 19.3836C29.6286 19.9695 30.3101 20.4097 31.0675 20.6637C31.8249 20.9177 32.6339 20.9773 33.4204 20.8372C36.4364 20.3344 38.3924 18.3612 40.2204 15.8772C38.593 15.0333 36.8054 14.5435 34.9752 14.44Z" fill="url(#paint18_linear_1_12)"/>
<path opacity="0.65" d="M32.8 11.0463C31.237 11.3403 29.8273 12.1747 28.8176 13.4035C28.134 14.285 27.7954 15.3855 27.8652 16.4987C27.8876 16.6689 27.9458 16.8325 28.0361 16.9785C28.1263 17.1246 28.2465 17.2498 28.3888 17.3459C29.065 17.7714 29.8372 18.0201 30.6346 18.0694C31.432 18.1187 32.229 17.9669 32.9524 17.6279C35.7356 16.3615 37.1124 13.9479 38.2372 11.0779C36.4473 10.6839 34.5943 10.6731 32.8 11.0463V11.0463Z" fill="url(#paint19_linear_1_12)"/>
<path opacity="0.65" d="M29.8228 8.3312C28.3891 9.01965 27.2433 10.1905 26.586 11.6388C26.1535 12.6669 26.1109 13.8175 26.466 14.8748C26.5315 15.0335 26.6298 15.1765 26.7546 15.2943C26.8794 15.4121 27.0278 15.5022 27.19 15.5584C27.9531 15.7942 28.7632 15.8346 29.5459 15.6759C30.3287 15.5171 31.059 15.1644 31.67 14.65C34.03 12.7064 34.738 10.0196 35.0792 6.9552C33.2496 7.0381 31.4583 7.50703 29.8228 8.3312V8.3312Z" fill="url(#paint20_linear_1_12)"/>
<path opacity="0.65" d="M26.2436 6.47954C25.0369 7.51562 24.2332 8.94324 23.9732 10.5123C23.822 11.6174 24.079 12.7396 24.696 13.6687C24.8003 13.8051 24.9324 13.9177 25.0835 13.9992C25.2345 14.0807 25.4012 14.1292 25.5724 14.1415C26.3705 14.1721 27.1636 14.0017 27.8788 13.6461C28.5939 13.2904 29.2083 12.7608 29.6656 12.1059C31.4428 9.61754 31.4304 6.83914 30.9672 3.79114C29.2207 4.34407 27.6109 5.26026 26.2436 6.47954V6.47954Z" fill="url(#paint21_linear_1_12)"/>
<path opacity="0.65" d="M22.3068 5.61719C21.4094 6.93024 21.0026 8.51715 21.1576 10.1C21.2975 11.2066 21.8362 12.2242 22.6728 12.962C22.8088 13.0667 22.9655 13.1413 23.1325 13.181C23.2995 13.2206 23.473 13.2244 23.6416 13.192C24.4206 13.0147 25.1425 12.6446 25.7412 12.1157C26.3399 11.5868 26.7961 10.9159 27.068 10.1648C28.1404 7.30119 27.4096 4.62079 26.1732 1.79639C24.6293 2.78298 23.3116 4.0851 22.3068 5.61719V5.61719Z" fill="url(#paint22_linear_1_12)"/>
<path opacity="0.65" d="M18.28 5.80317C17.7531 7.30381 17.771 8.94197 18.3304 10.4308C18.752 11.4635 19.5358 12.307 20.5348 12.8032C20.6933 12.869 20.8639 12.9005 21.0355 12.8956C21.207 12.8906 21.3756 12.8493 21.53 12.7744C22.2365 12.4015 22.8381 11.8571 23.2794 11.1912C23.7208 10.5253 23.9878 9.75916 24.056 8.96317C24.3516 5.91957 22.952 3.51957 21.0264 1.11157C19.7902 2.46418 18.8542 4.06307 18.28 5.80317V5.80317Z" fill="url(#paint23_linear_1_12)"/>
<defs>
<linearGradient id="paint0_linear_1_12" x1="1" y1="41.1059" x2="41" y2="1.10591" gradientUnits="userSpaceOnUse">
<stop stop-color="#0A00B2"/>
<stop offset="0.5" stop-color="#FF0000"/>
<stop offset="1" stop-color="#FFFC00"/>
</linearGradient>
<linearGradient id="paint1_linear_1_12" x1="1" y1="41.106" x2="41" y2="1.10602" gradientUnits="userSpaceOnUse">
<stop stop-color="#0A00B2"/>
<stop offset="0.5" stop-color="#FF0000"/>
<stop offset="1" stop-color="#FFFC00"/>
</linearGradient>
<linearGradient id="paint2_linear_1_12" x1="1" y1="41.106" x2="41" y2="1.10601" gradientUnits="userSpaceOnUse">
<stop stop-color="#0A00B2"/>
<stop offset="0.5" stop-color="#FF0000"/>
<stop offset="1" stop-color="#FFFC00"/>
</linearGradient>
<linearGradient id="paint3_linear_1_12" x1="1" y1="41.106" x2="41" y2="1.10601" gradientUnits="userSpaceOnUse">
<stop stop-color="#0A00B2"/>
<stop offset="0.5" stop-color="#FF0000"/>
<stop offset="1" stop-color="#FFFC00"/>
</linearGradient>
<linearGradient id="paint4_linear_1_12" x1="1" y1="41.106" x2="41" y2="1.10601" gradientUnits="userSpaceOnUse">
<stop stop-color="#0A00B2"/>
<stop offset="0.5" stop-color="#FF0000"/>
<stop offset="1" stop-color="#FFFC00"/>
</linearGradient>
<linearGradient id="paint5_linear_1_12" x1="1" y1="41.106" x2="41" y2="1.106" gradientUnits="userSpaceOnUse">
<stop stop-color="#0A00B2"/>
<stop offset="0.5" stop-color="#FF0000"/>
<stop offset="1" stop-color="#FFFC00"/>
</linearGradient>
<linearGradient id="paint6_linear_1_12" x1="1.00001" y1="41.106" x2="41" y2="1.10598" gradientUnits="userSpaceOnUse">
<stop stop-color="#0A00B2"/>
<stop offset="0.5" stop-color="#FF0000"/>
<stop offset="1" stop-color="#FFFC00"/>
</linearGradient>
<linearGradient id="paint7_linear_1_12" x1="1" y1="41.106" x2="41" y2="1.10597" gradientUnits="userSpaceOnUse">
<stop stop-color="#0A00B2"/>
<stop offset="0.5" stop-color="#FF0000"/>
<stop offset="1" stop-color="#FFFC00"/>
</linearGradient>
<linearGradient id="paint8_linear_1_12" x1="1.00001" y1="41.106" x2="41" y2="1.10596" gradientUnits="userSpaceOnUse">
<stop stop-color="#0A00B2"/>
<stop offset="0.5" stop-color="#FF0000"/>
<stop offset="1" stop-color="#FFFC00"/>
</linearGradient>
<linearGradient id="paint9_linear_1_12" x1="0.999996" y1="41.106" x2="41" y2="1.106" gradientUnits="userSpaceOnUse">
<stop stop-color="#0A00B2"/>
<stop offset="0.5" stop-color="#FF0000"/>
<stop offset="1" stop-color="#FFFC00"/>
</linearGradient>
<linearGradient id="paint10_linear_1_12" x1="0.999999" y1="41.1059" x2="41" y2="1.10595" gradientUnits="userSpaceOnUse">
<stop stop-color="#0A00B2"/>
<stop offset="0.5" stop-color="#FF0000"/>
<stop offset="1" stop-color="#FFFC00"/>
</linearGradient>
<linearGradient id="paint11_linear_1_12" x1="0.999997" y1="41.106" x2="41" y2="1.10596" gradientUnits="userSpaceOnUse">
<stop stop-color="#0A00B2"/>
<stop offset="0.5" stop-color="#FF0000"/>
<stop offset="1" stop-color="#FFFC00"/>
</linearGradient>
<linearGradient id="paint12_linear_1_12" x1="0.999992" y1="41.106" x2="41" y2="1.10596" gradientUnits="userSpaceOnUse">
<stop stop-color="#0A00B2"/>
<stop offset="0.5" stop-color="#FF0000"/>
<stop offset="1" stop-color="#FFFC00"/>
</linearGradient>
<linearGradient id="paint13_linear_1_12" x1="0.999992" y1="41.106" x2="41" y2="1.10599" gradientUnits="userSpaceOnUse">
<stop stop-color="#0A00B2"/>
<stop offset="0.5" stop-color="#FF0000"/>
<stop offset="1" stop-color="#FFFC00"/>
</linearGradient>
<linearGradient id="paint14_linear_1_12" x1="0.999996" y1="41.106" x2="41" y2="1.10597" gradientUnits="userSpaceOnUse">
<stop stop-color="#0A00B2"/>
<stop offset="0.5" stop-color="#FF0000"/>
<stop offset="1" stop-color="#FFFC00"/>
</linearGradient>
<linearGradient id="paint15_linear_1_12" x1="0.99999" y1="41.106" x2="41" y2="1.10598" gradientUnits="userSpaceOnUse">
<stop stop-color="#0A00B2"/>
<stop offset="0.5" stop-color="#FF0000"/>
<stop offset="1" stop-color="#FFFC00"/>
</linearGradient>
<linearGradient id="paint16_linear_1_12" x1="1" y1="41.106" x2="41" y2="1.10596" gradientUnits="userSpaceOnUse">
<stop stop-color="#0A00B2"/>
<stop offset="0.5" stop-color="#FF0000"/>
<stop offset="1" stop-color="#FFFC00"/>
</linearGradient>
<linearGradient id="paint17_linear_1_12" x1="1.00001" y1="41.106" x2="41" y2="1.10599" gradientUnits="userSpaceOnUse">
<stop stop-color="#0A00B2"/>
<stop offset="0.5" stop-color="#FF0000"/>
<stop offset="1" stop-color="#FFFC00"/>
</linearGradient>
<linearGradient id="paint18_linear_1_12" x1="1" y1="41.106" x2="41" y2="1.10603" gradientUnits="userSpaceOnUse">
<stop stop-color="#0A00B2"/>
<stop offset="0.5" stop-color="#FF0000"/>
<stop offset="1" stop-color="#FFFC00"/>
</linearGradient>
<linearGradient id="paint19_linear_1_12" x1="1" y1="41.1059" x2="41" y2="1.10592" gradientUnits="userSpaceOnUse">
<stop stop-color="#0A00B2"/>
<stop offset="0.5" stop-color="#FF0000"/>
<stop offset="1" stop-color="#FFFC00"/>
</linearGradient>
<linearGradient id="paint20_linear_1_12" x1="1.00001" y1="41.106" x2="41" y2="1.10601" gradientUnits="userSpaceOnUse">
<stop stop-color="#0A00B2"/>
<stop offset="0.5" stop-color="#FF0000"/>
<stop offset="1" stop-color="#FFFC00"/>
</linearGradient>
<linearGradient id="paint21_linear_1_12" x1="1" y1="41.1059" x2="41" y2="1.10594" gradientUnits="userSpaceOnUse">
<stop stop-color="#0A00B2"/>
<stop offset="0.5" stop-color="#FF0000"/>
<stop offset="1" stop-color="#FFFC00"/>
</linearGradient>
<linearGradient id="paint22_linear_1_12" x1="1.00001" y1="41.106" x2="41" y2="1.10599" gradientUnits="userSpaceOnUse">
<stop stop-color="#0A00B2"/>
<stop offset="0.5" stop-color="#FF0000"/>
<stop offset="1" stop-color="#FFFC00"/>
</linearGradient>
<linearGradient id="paint23_linear_1_12" x1="0.999998" y1="41.106" x2="41" y2="1.10597" gradientUnits="userSpaceOnUse">
<stop stop-color="#0A00B2"/>
<stop offset="0.5" stop-color="#FF0000"/>
<stop offset="1" stop-color="#FFFC00"/>
</linearGradient>
</defs>
</svg>
