<svg width="37" height="37" viewBox="0 0 37 37" fill="none" xmlns="http://www.w3.org/2000/svg">
<path d="M13.0279 7.47747C11.7227 8.12364 10.5433 8.99768 9.54535 10.0585C10.031 10.0679 10.5196 10.0461 11.0085 9.99118C11.5772 9.07437 12.2555 8.23025 13.0284 7.47747H13.0279ZM14.1831 6.97662C15.2237 6.9274 16.2574 6.99836 17.2649 7.18787C17.6102 6.87754 17.9358 6.546 18.2399 6.19519C16.8531 6.22375 15.4813 6.488 14.1831 6.97662V6.97662ZM13.544 8.1059C13.0104 8.63131 12.5254 9.20381 12.0947 9.81643C12.755 9.6745 13.4012 9.47366 14.0255 9.21631L13.544 8.1059V8.1059ZM14.2975 7.78184L14.7742 8.88036C15.3497 8.59338 15.8996 8.25756 16.4178 7.8766C15.715 7.78472 15.0057 7.75302 14.2975 7.78184V7.78184ZM19.2814 6.21816C18.9571 6.63714 18.6055 7.03426 18.2289 7.40692C20.091 7.90159 21.8229 8.79637 23.3038 10.0289C23.8518 9.36533 24.3503 8.66241 24.7953 7.92582C23.1177 6.92986 21.2283 6.34472 19.2814 6.21816V6.21816ZM8.86113 10.8469C7.65082 12.3757 6.81914 14.1691 6.43398 16.0806C7.28803 16.2462 8.15319 16.3482 9.02234 16.3858C9.11129 14.4566 9.6209 12.5703 10.5155 10.8587C9.9617 10.8932 9.40834 10.8883 8.86113 10.8469V10.8469ZM17.5028 8.0657C16.767 8.68159 15.96 9.20698 15.099 9.63061L17.2977 14.699C19.3693 13.7193 21.2283 12.3423 22.7694 10.6463C21.2448 9.37796 19.4389 8.49298 17.5024 8.06529L17.5028 8.0657ZM11.4938 10.7554C10.4972 12.4773 9.9291 14.4135 9.83741 16.401C12.1426 16.3906 14.4232 15.9255 16.5483 15.0321L14.3521 9.96821C13.4354 10.3475 12.4754 10.612 11.4938 10.7558V10.7554ZM25.4853 8.36966C25.0174 9.14133 24.4934 9.87757 23.9175 10.5724C25.1941 11.781 26.2121 13.2361 26.9099 14.8496C27.0592 15.1933 27.193 15.5399 27.3103 15.8886C28.1357 15.0398 28.8982 14.1319 29.5918 13.1723C28.6674 11.2393 27.2513 9.58308 25.4853 8.36966V8.36966ZM6.29821 16.8879C6.01467 19.0116 6.29389 21.1726 7.10794 23.1545C8.28388 23.2842 9.46769 23.3282 10.65 23.2862C10.4444 22.9156 10.2569 22.5353 10.088 22.1466C9.40952 20.586 9.04422 18.9072 9.01291 17.2058C8.10138 17.1672 7.19398 17.0609 6.29821 16.8879V16.8879ZM23.3797 11.189C21.7607 12.9747 19.8049 14.4231 17.6246 15.4509L20.0448 21.0301C22.4806 19.9066 24.7143 18.389 26.656 16.5384C26.5165 16.075 26.35 15.6203 26.1572 15.1765C25.508 13.6745 24.5635 12.3183 23.3797 11.1886V11.189ZM9.82592 17.2189C9.85997 18.7612 10.1881 20.3208 10.8387 21.8213C11.0499 22.308 11.2923 22.7806 11.5643 23.2361C14.2262 23.0387 16.8377 22.4063 19.295 21.364L16.8748 15.7848C14.643 16.7241 12.2472 17.2115 9.82592 17.2189ZM29.9659 14.0357C29.2363 15.0079 28.4373 15.926 27.5753 16.7829C28.128 18.9286 28.1243 21.1799 27.5646 23.3239C28.6234 22.5587 29.6315 21.7256 30.5824 20.8299C31.0252 18.5524 30.8114 16.1959 29.9659 14.0353V14.0357ZM7.49845 24.0159C8.53555 26.0908 10.1409 27.8282 12.1276 29.0257C13.4073 28.9232 14.6791 28.7392 15.9354 28.4748C13.9881 27.4412 12.3348 25.9307 11.1299 24.0844C9.91939 24.1491 8.70573 24.1264 7.49845 24.0163V24.0159ZM26.8906 17.4404C24.9577 19.2199 22.7583 20.686 20.3722 21.7856L22.3546 26.3553C23.792 25.7008 25.1765 24.936 26.4956 24.0676C26.4956 24.0664 26.4964 24.0651 26.4968 24.0643C27.2343 21.9346 27.3706 19.6429 26.8906 17.4408V17.4404ZM12.0709 24.0171C13.3647 25.8469 15.1347 27.2875 17.189 28.1827C18.6965 27.7969 20.1725 27.2968 21.604 26.6867L19.6215 22.1171C17.2181 23.1372 14.6709 23.7782 12.0709 24.0171ZM30.2116 22.2685C29.2458 23.1088 28.2289 23.8886 27.1667 24.6033C26.4779 26.4622 25.383 28.144 23.9618 29.5261C27.042 28.003 29.223 25.3363 30.2116 22.2685V22.2685ZM13.4349 29.7136C16.3112 31.011 19.674 31.2047 22.8235 30.02C20.8786 30.1127 18.9371 29.7777 17.1357 29.0388C15.9168 29.3382 14.681 29.5634 13.4349 29.7132V29.7136ZM25.957 25.3769C24.9004 26.0187 23.8068 26.5975 22.682 27.1104L23.4532 28.8887C24.4854 27.8726 25.3327 26.6844 25.957 25.3774V25.3769ZM18.5025 28.6721C19.8609 29.092 21.2811 29.2766 22.7017 29.2176L21.9305 27.4394C20.8126 27.9161 19.668 28.3277 18.5025 28.6721V28.6721Z" fill="#339966"/>
<path d="M18.5 0.0410156C12.201 0.0410156 6.63621 3.2016 3.30457 8.02186L6.8733 10.0831C9.48381 6.48566 13.7187 4.14301 18.5 4.14301C23.2813 4.14301 27.5166 6.48525 30.1267 10.0831L33.6954 8.02186C30.3638 3.2016 24.799 0.0410156 18.5 0.0410156Z" fill="#990000"/>
<path d="M1.36145 11.6394C0.486971 13.8209 0.0387397 16.1498 0.0410166 18.5C0.0410166 27.9961 7.22361 35.8252 16.449 36.8462V32.7081C9.49489 31.7117 4.14301 25.7289 4.14301 18.5C4.14137 16.8703 4.41799 15.2524 4.96095 13.7158L1.36145 11.6394ZM35.6385 11.6394L32.039 13.7162C32.5819 15.2527 32.8585 16.8705 32.857 18.5C32.857 25.7285 27.5051 31.7117 20.551 32.7085V36.8462C29.7764 35.8248 36.959 27.9961 36.959 18.5C36.959 16.0757 36.4893 13.761 35.6385 11.6394Z" fill="#006699"/>
</svg>
