<svg width="124" height="38" viewBox="0 0 124 38" fill="none" xmlns="http://www.w3.org/2000/svg">
<path d="M118.5 1H5.5C3.01472 1 1 3.01472 1 5.5V32.5C1 34.9853 3.01472 37 5.5 37H118.5C120.985 37 123 34.9853 123 32.5V5.5C123 3.01472 120.985 1 118.5 1Z" fill="black"/>
<path d="M118.481 1.72C118.978 1.71895 119.471 1.81589 119.931 2.00528C120.391 2.19467 120.809 2.47281 121.162 2.82382C121.514 3.17483 121.794 3.59182 121.986 4.051C122.177 4.51018 122.276 5.00255 122.277 5.5V32.5C122.277 34.588 120.577 36.28 118.481 36.28H5.52C5.02247 36.2812 4.52958 36.1843 4.06948 35.995C3.60938 35.8057 3.19108 35.5276 2.83849 35.1765C2.48589 34.8255 2.2059 34.4085 2.0145 33.9492C1.8231 33.49 1.72405 32.9975 1.723 32.5V5.5C1.723 3.412 3.423 1.72 5.519 1.72H118.48H118.481ZM118.481 1H5.52C3.023 1 1 3.015 1 5.5V32.5C1 34.985 3.023 37 5.519 37H118.48C120.976 37 122.999 34.985 122.999 32.5V5.5C122.999 3.015 120.976 1 118.48 1H118.481Z" fill="#A6A6A6"/>
<path d="M62.578 20.575C61.5626 20.5779 60.5899 20.9836 59.8734 21.7029C59.1568 22.4223 58.7549 23.3966 58.756 24.412C58.7613 25.4273 59.1693 26.3991 59.8903 27.114C60.6114 27.8289 61.5866 28.2284 62.602 28.225C63.6175 28.2255 64.5918 27.823 65.3108 27.1058C66.0298 26.3887 66.4349 25.4155 66.437 24.4C66.4441 23.8938 66.3491 23.3914 66.1575 22.9228C65.9659 22.4542 65.6817 22.0291 65.322 21.673C64.9613 21.3157 64.5326 21.0345 64.0613 20.8459C63.59 20.6573 63.0856 20.5652 62.578 20.575V20.575ZM62.578 26.722C62.1121 26.7548 61.647 26.647 61.243 26.4126C60.839 26.1781 60.5147 25.8278 60.312 25.407C60.1103 24.9865 60.0403 24.515 60.1112 24.0541C60.182 23.5932 60.3904 23.1644 60.709 22.824C61.0284 22.4828 61.4428 22.2452 61.8986 22.1418C62.3543 22.0384 62.8306 22.074 63.266 22.244C63.7009 22.413 64.0748 22.709 64.339 23.0936C64.6031 23.4782 64.7453 23.9334 64.747 24.4C64.777 24.996 64.563 25.58 64.155 26.017C63.9524 26.2336 63.7085 26.4075 63.4377 26.5286C63.1668 26.6497 62.8746 26.7154 62.578 26.722V26.722ZM54.165 20.575C53.149 20.5752 52.1746 20.9789 51.456 21.6973C50.7375 22.4156 50.3335 23.3899 50.333 24.406C50.3367 25.422 50.7437 26.395 51.4645 27.1112C52.1853 27.8273 53.161 28.2279 54.177 28.225C55.1931 28.2263 56.1681 27.8241 56.8878 27.1069C57.6074 26.3897 58.0129 25.416 58.015 24.4C58.0221 23.8938 57.9271 23.3914 57.7355 22.9228C57.5439 22.4542 57.2597 22.0291 56.9 21.673C56.5393 21.3157 56.1106 21.0345 55.6393 20.8459C55.168 20.6573 54.6636 20.5652 54.156 20.575H54.165ZM54.165 26.722C53.6986 26.7568 53.2325 26.6506 52.8271 26.4172C52.4218 26.1837 52.096 25.8339 51.892 25.413C51.689 24.993 51.6176 24.5214 51.6872 24.0602C51.7568 23.5989 51.9641 23.1694 52.282 22.828C52.6011 22.4853 53.0157 22.2464 53.4721 22.1421C53.9286 22.0378 54.4058 22.0729 54.842 22.243C55.2774 22.4117 55.6519 22.7078 55.9164 23.0926C56.181 23.4774 56.3234 23.933 56.325 24.4C56.3394 24.6955 56.2944 24.9909 56.1925 25.2686C56.0906 25.5464 55.9341 25.8009 55.732 26.017C55.5295 26.2335 55.2857 26.4073 55.0151 26.5284C54.7445 26.6495 54.4524 26.7153 54.156 26.722H54.165V26.722ZM44.143 21.754V23.374H48.047C47.9855 24.1376 47.6668 24.8579 47.143 25.417C46.7516 25.8136 46.2817 26.1241 45.7634 26.3287C45.2451 26.5332 44.6898 26.6274 44.133 26.605C41.738 26.605 39.796 24.671 39.796 22.285C39.796 19.899 41.738 17.965 44.134 17.965C45.234 17.947 46.297 18.365 47.089 19.126L48.237 17.983C47.7014 17.4434 47.0633 17.0166 46.3602 16.7275C45.6571 16.4385 44.9032 16.2931 44.143 16.3C43.0702 16.2575 42.0057 16.5046 41.0614 17.0154C40.117 17.5262 39.3276 18.2819 38.776 19.203C38.2265 20.1223 37.9363 21.1734 37.9363 22.2445C37.9363 23.3155 38.2265 24.3666 38.776 25.286C39.3276 26.2071 40.117 26.9627 41.0614 27.4735C42.0057 27.9843 43.0702 28.2314 44.143 28.189C44.9159 28.224 45.6874 28.0936 46.4059 27.8065C47.1243 27.5193 47.7732 27.0821 48.309 26.524C49.2553 25.4897 49.7611 24.1272 49.719 22.726C49.722 22.3849 49.6919 22.0443 49.629 21.709L44.143 21.754ZM85.09 23.014C84.8529 22.3223 84.4114 21.7188 83.824 21.2833C83.2365 20.8478 82.5308 20.6008 81.8 20.575C81.306 20.5739 80.8169 20.6739 80.3629 20.8687C79.909 21.0635 79.4996 21.3491 79.16 21.708C78.8216 22.0658 78.5604 22.4895 78.3926 22.9526C78.2249 23.4157 78.1542 23.9084 78.185 24.4C78.1741 24.9035 78.2652 25.404 78.4527 25.8714C78.6402 26.3388 78.9202 26.7635 79.276 27.12C79.6329 27.4772 80.0579 27.759 80.5259 27.9486C80.9938 28.1383 81.4952 28.2319 82 28.224C82.6316 28.2279 83.2543 28.0755 83.8127 27.7802C84.3711 27.485 84.8477 27.0562 85.2 26.532L83.889 25.632C83.6927 25.9571 83.4155 26.2258 83.0845 26.412C82.7534 26.5981 82.3798 26.6952 82 26.694C81.199 26.724 80.46 26.264 80.138 25.533L85.28 23.418L85.09 23.013V23.014ZM79.848 24.292C79.8297 24.0134 79.8674 23.734 79.9587 23.4702C80.0501 23.2064 80.1933 22.9635 80.38 22.756C80.5673 22.548 80.794 22.3794 81.0471 22.2599C81.3001 22.1404 81.5744 22.0724 81.854 22.06C82.45 22.02 83.012 22.34 83.282 22.87L79.848 24.292V24.292ZM75.673 28H77.363V16.75H75.673V28ZM72.908 21.43H72.844C72.5888 21.1462 72.2767 20.9193 71.9279 20.7643C71.5792 20.6092 71.2017 20.5294 70.82 20.53C69.8344 20.5757 68.9041 20.999 68.2222 21.712C67.5402 22.4251 67.1588 23.3733 67.157 24.36C67.159 25.3465 67.5406 26.2944 68.2225 27.0073C68.9045 27.7201 69.8346 28.1433 70.82 28.189C71.2026 28.1955 71.582 28.1184 71.9316 27.9629C72.2812 27.8075 72.5926 27.5774 72.844 27.289H72.899V27.838C72.899 29.305 72.112 30.088 70.847 30.088C70.4262 30.0787 70.0177 29.9445 69.6734 29.7025C69.329 29.4605 69.0644 29.1217 68.913 28.729L67.44 29.341C67.7186 30.0139 68.1916 30.5884 68.7985 30.991C69.4055 31.3936 70.1187 31.606 70.847 31.601C72.827 31.601 74.462 30.439 74.462 27.613V20.8H72.908V21.43ZM70.974 26.722C70.3923 26.672 69.8504 26.4058 69.4552 25.976C69.0599 25.5462 68.8401 24.9839 68.839 24.4C68.839 23.192 69.765 22.184 70.974 22.078C71.558 22.108 72.104 22.371 72.491 22.808C72.877 23.246 73.07 23.819 73.025 24.4C73.0497 24.6887 73.0153 24.9795 72.924 25.2546C72.8328 25.5296 72.6864 25.7833 72.494 26C72.104 26.439 71.552 26.7 70.964 26.722H70.974V26.722ZM93.006 16.75H88.966V28H90.656V23.734H93.016C93.6592 23.7803 94.3027 23.649 94.8764 23.3545C95.45 23.06 95.9318 22.6136 96.269 22.064C96.6048 21.5156 96.7825 20.885 96.7825 20.242C96.7825 19.5989 96.6048 18.9684 96.269 18.42C95.9317 17.8702 95.4498 17.4237 94.8759 17.1292C94.3021 16.8346 93.6583 16.7035 93.015 16.75H93.006V16.75ZM93.006 22.15H90.647V18.316H93.042C94.112 18.316 94.981 19.18 94.981 20.246C94.9805 20.5001 94.9299 20.7516 94.8322 20.9862C94.7345 21.2207 94.5915 21.4337 94.4114 21.6131C94.2314 21.7924 94.0178 21.9345 93.7828 22.0312C93.5478 22.128 93.2961 22.1775 93.042 22.177L93.006 22.15ZM103.426 20.53C102.811 20.4927 102.199 20.6355 101.665 20.9408C101.13 21.2461 100.696 21.7007 100.416 22.249L101.916 22.87C102.219 22.315 102.821 21.99 103.453 22.042C103.886 21.992 104.322 22.117 104.662 22.389C105.002 22.662 105.217 23.059 105.26 23.491V23.608C104.717 23.3217 104.112 23.1734 103.498 23.176C101.88 23.176 100.245 24.076 100.245 25.705C100.277 26.407 100.593 27.065 101.121 27.532C101.648 27.998 102.343 28.232 103.046 28.18C103.471 28.2108 103.897 28.1269 104.279 27.9369C104.661 27.7469 104.984 27.4579 105.216 27.1H105.269V28H106.896V23.671C106.896 21.7 105.396 20.557 103.471 20.557L103.426 20.53V20.53ZM103.218 26.695C102.667 26.695 101.898 26.416 101.898 25.741C101.898 24.841 102.856 24.544 103.706 24.544C104.243 24.5308 104.773 24.6613 105.242 24.922C105.184 25.4101 104.952 25.8609 104.589 26.1916C104.225 26.5224 103.754 26.7107 103.263 26.722L103.218 26.695V26.695ZM112.824 20.8L110.89 25.678H110.836L108.83 20.8H107.023L110.032 27.622L108.315 31.411H110.077L114.704 20.8H112.824ZM97.633 28H99.323V16.75H97.633V28Z" fill="white"/>
<path d="M43.854 10.216C43.8693 10.5464 43.817 10.8764 43.7004 11.1859C43.5839 11.4954 43.4054 11.7778 43.176 12.016C42.9192 12.2814 42.6096 12.4898 42.2671 12.6278C41.9246 12.7658 41.557 12.8303 41.188 12.817C40.6285 12.8132 40.0826 12.6446 39.6185 12.3323C39.1543 12.02 38.7924 11.5778 38.578 11.061C38.3649 10.545 38.3094 9.97731 38.4185 9.4297C38.5276 8.8821 38.7964 8.37907 39.191 7.98405C39.451 7.71997 39.7623 7.51189 40.1058 7.37259C40.4492 7.23329 40.8175 7.16572 41.188 7.17405C41.57 7.17305 41.948 7.24905 42.299 7.39905C42.626 7.53005 42.917 7.73705 43.149 8.00205L42.669 8.47905C42.4883 8.26529 42.2606 8.09633 42.0036 7.98545C41.7466 7.87458 41.4675 7.82481 41.188 7.84005C40.9058 7.83852 40.6262 7.89387 40.366 8.0028C40.1057 8.11173 39.87 8.27201 39.673 8.47405C39.4766 8.67531 39.3231 8.91431 39.2217 9.1766C39.1203 9.43889 39.0731 9.71901 39.083 10C39.0773 10.4202 39.1964 10.8325 39.4251 11.185C39.6539 11.5374 39.982 11.8141 40.368 11.98C41.158 12.32 42.078 12.153 42.697 11.557C42.975 11.257 43.135 10.867 43.149 10.459H41.188V9.81105H43.818C43.842 9.94505 43.854 10.081 43.854 10.216ZM47.993 7.96605H45.553V9.67605H47.776V10.324H45.553V12.034H47.993V12.7H44.83V7.30005H47.993V7.96605V7.96605ZM50.957 12.7H50.261V7.96605H48.743V7.30005H52.511V7.96605H50.957V12.7ZM55.168 12.7V7.30005H55.864V12.7H55.168ZM58.955 12.7H58.259V7.96605H56.74V7.30005H60.464V7.96605H58.954V12.7H58.955ZM67.522 11.998C66.9926 12.5216 66.2781 12.8152 65.5335 12.8152C64.7889 12.8152 64.0744 12.5216 63.545 11.998C63.0316 11.4578 62.7453 10.7409 62.7453 9.99555C62.7453 9.25021 63.0316 8.53334 63.545 7.99305C63.8058 7.7313 64.1157 7.52361 64.4569 7.3819C64.7982 7.24018 65.164 7.16724 65.5335 7.16724C65.903 7.16724 66.2688 7.24018 66.6101 7.3819C66.9513 7.52361 67.2612 7.7313 67.522 7.99305C68.0375 8.53229 68.3251 9.24955 68.3251 9.99555C68.3251 10.7415 68.0375 11.4588 67.522 11.998V11.998ZM64.06 11.548C64.4521 11.9364 64.9816 12.1542 65.5335 12.1542C66.0854 12.1542 66.6149 11.9364 67.007 11.548C67.807 10.67 67.807 9.33005 67.007 8.45205C66.6149 8.06372 66.0854 7.84587 65.5335 7.84587C64.9816 7.84587 64.4521 8.06372 64.06 8.45205C63.26 9.33005 63.26 10.67 64.06 11.548ZM69.302 12.7V7.30005H70.152L72.79 11.503V7.30005H73.486V12.7H72.763L70.007 8.29905V12.7H69.302Z" fill="white" stroke="white" stroke-width="0.563"/>
<path d="M10.434 7.78602C10.1399 8.13762 9.99138 8.58844 10.019 9.04602V28.954C9.99101 29.411 10.139 29.862 10.434 30.214L10.498 30.277L21.693 19.135V18.874L10.498 7.72302L10.433 7.78602H10.434Z" fill="url(#paint0_linear_1_108)"/>
<path d="M25.4 22.8519L21.694 19.1349V18.8739L25.4 15.1479L25.481 15.1929L29.918 17.7039C31.183 18.4149 31.183 19.5849 29.918 20.3049L25.499 22.8069L25.399 22.8519H25.4Z" fill="url(#paint1_linear_1_108)"/>
<path d="M25.508 22.798L21.694 19L10.434 30.214C10.6924 30.4399 11.0213 30.5688 11.3643 30.5786C11.7073 30.5885 12.0431 30.4787 12.314 30.268L25.517 22.798" fill="url(#paint2_linear_1_108)"/>
<path d="M25.508 15.202L12.305 7.732C12.0341 7.52135 11.6983 7.41153 11.3553 7.42139C11.0123 7.43124 10.6834 7.56015 10.425 7.786L21.695 19L25.508 15.202V15.202Z" fill="url(#paint3_linear_1_108)"/>
<path opacity="0.2" d="M25.4 22.717L12.305 30.142C12.0438 30.3363 11.727 30.4412 11.4015 30.4412C11.076 30.4412 10.7592 30.3363 10.498 30.142L10.435 30.205L10.498 30.268C10.7586 30.4637 11.0756 30.5694 11.4015 30.5694C11.7273 30.5694 12.0444 30.4637 12.305 30.268L25.508 22.798L25.4 22.717V22.717Z" fill="black"/>
<path opacity="0.12" d="M10.435 30.088C10.1405 29.7365 9.99164 29.2857 10.019 28.828V28.963C9.99099 29.42 10.14 29.871 10.435 30.223L10.498 30.16L10.435 30.088V30.088ZM29.919 20.17L25.4 22.717L25.481 22.798L29.919 20.296C30.431 20.056 30.776 19.562 30.822 19C30.719 19.508 30.385 19.94 29.919 20.17V20.17Z" fill="black"/>
<path opacity="0.25" d="M12.305 7.85794L29.92 17.8299C30.386 18.0599 30.72 18.4919 30.823 18.9999C30.7999 18.7235 30.7043 18.4581 30.5457 18.2306C30.3872 18.003 30.1713 17.8213 29.92 17.7039L12.305 7.73194C11.04 7.02094 10.01 7.61494 10.01 9.05494V9.18994C10.037 7.74094 11.05 7.14694 12.305 7.85794Z" fill="white"/>
<defs>
<linearGradient id="paint0_linear_1_108" x1="17.1534" y1="8.83899" x2="7.56109" y2="18.3906" gradientUnits="userSpaceOnUse">
<stop stop-color="#00A0FF"/>
<stop offset="0.01" stop-color="#00A1FF"/>
<stop offset="0.26" stop-color="#00BEFF"/>
<stop offset="0.51" stop-color="#00D2FF"/>
<stop offset="0.76" stop-color="#00DFFF"/>
<stop offset="1" stop-color="#00E3FF"/>
</linearGradient>
<linearGradient id="paint1_linear_1_108" x1="31.5717" y1="18.9999" x2="9.71072" y2="18.9999" gradientUnits="userSpaceOnUse">
<stop stop-color="#FFE000"/>
<stop offset="0.41" stop-color="#FFBD00"/>
<stop offset="0.78" stop-color="#FFA500"/>
<stop offset="1" stop-color="#FF9C00"/>
</linearGradient>
<linearGradient id="paint2_linear_1_108" x1="23.4384" y1="22.5973" x2="7.07381" y2="38.8879" gradientUnits="userSpaceOnUse">
<stop stop-color="#FF3A44"/>
<stop offset="1" stop-color="#C31162"/>
</linearGradient>
<linearGradient id="paint3_linear_1_108" x1="7.59632" y1="6.10931" x2="14.9006" y2="13.3838" gradientUnits="userSpaceOnUse">
<stop stop-color="#32A071"/>
<stop offset="0.07" stop-color="#2DA771"/>
<stop offset="0.48" stop-color="#15CF74"/>
<stop offset="0.8" stop-color="#06E775"/>
<stop offset="1" stop-color="#00F076"/>
</linearGradient>
</defs>
</svg>
