<svg width="37" height="37" viewBox="0 0 37 37" fill="none" xmlns="http://www.w3.org/2000/svg">
<path d="M27.5619 2.99332L4.06541 6.80664C2.40464 7.07618 1.36774 9.09711 1.74945 11.3205L5.40627 32.6213C5.78798 34.8447 7.44373 36.4286 9.10451 36.1591L32.601 32.3458C34.2617 32.0762 35.2986 30.0553 34.9169 27.8319L31.2601 6.53113C30.8784 4.30772 29.2226 2.72379 27.5619 2.99332Z" fill="#E7C78D" stroke="black" stroke-width="0.360643" stroke-linecap="round" stroke-linejoin="round"/>
<path d="M27.8965 0.840856L4.40005 4.65418C2.73928 4.92371 1.70239 6.94464 2.08409 9.16805L5.74091 30.4688C6.12262 32.6922 7.77837 34.2762 9.43915 34.0066L32.9356 30.1933C34.5964 29.9238 35.6333 27.9028 35.2516 25.6794L31.5947 4.37866C31.213 2.15525 29.5573 0.571323 27.8965 0.840856Z" fill="url(#paint0_linear_1_99)" stroke="black" stroke-width="0.360643" stroke-linecap="round" stroke-linejoin="round"/>
<path d="M30.3211 6.46948L30.3996 7.00663C29.9114 7.07745 29.5301 7.22672 29.2533 7.45444C28.9766 7.68325 28.738 8.06895 28.5364 8.61155C28.4024 8.97764 28.2313 9.82749 28.0243 11.1633L25.1544 27.7921L24.602 27.8716L18.4744 15.9029L16.0981 29.1072L15.6012 29.1791L7.61914 13.6377C7.02424 12.4773 6.65488 11.7952 6.51215 11.5882C6.29966 11.268 5.99494 11.0199 5.63832 10.8767C5.29402 10.7438 4.85058 10.7166 4.30798 10.7961L4.22844 10.259L11.158 9.25221L11.2375 9.78936L10.9063 9.8373C10.4193 9.90812 10.063 10.0792 9.83965 10.3494C9.73294 10.4707 9.65421 10.614 9.60902 10.7692C9.56383 10.9243 9.55329 11.0875 9.57816 11.2472C9.62828 11.5849 9.94534 12.3356 10.5315 13.496L15.8518 24.0102L17.5679 14.165L16.7714 12.5906L16.134 11.3333C15.8692 10.8767 15.5892 10.4834 15.2961 10.15C15.1523 9.98567 14.979 9.84968 14.7851 9.74904C14.5533 9.61683 14.3017 9.52301 14.0399 9.47121C13.8558 9.43852 13.5757 9.44942 13.1987 9.50389L13.1192 8.96783L20.4083 7.90879L20.4879 8.44594L19.991 8.51894C19.4757 8.59303 19.115 8.76409 18.9102 9.03103C18.7054 9.29906 18.6324 9.63028 18.6901 10.0269C18.7631 10.5204 19.0976 11.3529 19.6936 12.522L24.8668 22.7017L26.8236 11.3376C27.0514 10.0792 27.1309 9.21734 27.0623 8.7521C27.0296 8.52983 26.9315 8.33153 26.7692 8.1572C26.6199 7.99049 26.4228 7.87403 26.2048 7.8238C25.8354 7.73881 25.3702 7.73664 24.808 7.81835L24.7284 7.2812L30.32 6.46948H30.3211Z" fill="url(#paint1_linear_1_99)" stroke="black" stroke-width="0.271299"/>
<defs>
<linearGradient id="paint0_linear_1_99" x1="32.2686" y1="20.3031" x2="5.74724" y2="14.7735" gradientUnits="userSpaceOnUse">
<stop stop-color="#F4E3CA"/>
<stop offset="1" stop-color="#E9CC9D"/>
</linearGradient>
<linearGradient id="paint1_linear_1_99" x1="32.1718" y1="23.8117" x2="7.02028" y2="9.93531" gradientUnits="userSpaceOnUse">
<stop stop-color="#0036D4"/>
<stop offset="1" stop-color="#010057"/>
</linearGradient>
</defs>
</svg>
