<svg width="35" height="42" viewBox="0 0 35 42" fill="none" xmlns="http://www.w3.org/2000/svg">
<g clip-path="url(#clip0_5_14)">
<path d="M7.05786 28.0335C10.9558 28.0335 14.1157 24.8736 14.1157 20.9756C14.1157 17.0777 10.9558 13.9178 7.05786 13.9178C3.15991 13.9178 0 17.0777 0 20.9756C0 24.8736 3.15991 28.0335 7.05786 28.0335Z" fill="url(#paint0_radial_5_14)"/>
<path d="M12.6528 29.6664C12.9048 29.5041 13.149 29.3311 13.3852 29.1483C13.789 28.8358 14.1686 28.4931 14.5215 28.1241C16.3341 26.2288 17.3879 23.6784 17.3879 20.9756V20.9751H17.3947C17.3947 19.1047 16.8885 17.3061 15.9742 15.7468C15.8385 15.5153 15.677 15.2671 15.4903 15.0031C14.7496 13.956 13.814 13.0443 12.7185 12.3274L15.1985 9.84741C16.4157 10.7369 17.4655 11.8095 18.3177 13.0144C18.5277 13.3114 18.7388 13.6408 18.9504 14.0017C20.1694 16.0808 20.8444 18.4797 20.8445 20.9751H20.8512V20.9756C20.8512 24.5747 19.4442 27.9748 17.0242 30.5052C16.5541 30.9967 16.0435 31.4571 15.4955 31.8811C15.3775 31.9724 15.2577 32.062 15.1362 32.1498L12.6528 29.6664L12.6528 29.6664Z" fill="#003B6F"/>
<path d="M17.3458 34.3593C17.6218 34.1473 17.8898 33.9278 18.1497 33.7012C18.7423 33.1846 19.2963 32.6281 19.8086 32.0372C22.434 29.0093 23.9324 25.0941 23.9324 20.9756V20.975H23.9395C23.9394 18.1431 23.225 15.4006 21.9177 12.9728C21.7057 12.579 21.4766 12.1917 21.2314 11.812C20.2085 10.2284 18.9209 8.81328 17.4076 7.63832L19.9805 5.06537C21.6749 6.43999 23.1211 8.06015 24.2804 9.85496C24.5738 10.3093 24.8502 10.777 25.1085 11.2568C26.6909 14.1954 27.5556 17.5256 27.5557 20.975H27.5629V20.9755C27.5629 25.9679 25.7399 30.7215 22.5456 34.4055C21.9263 35.1198 21.254 35.7947 20.5322 36.424C20.3324 36.5982 20.1289 36.7689 19.9221 36.9355L17.3459 34.3593L17.3458 34.3593Z" fill="#3B6FA0"/>
<path d="M22.3283 39.3419C22.9274 38.8455 23.4907 38.3309 24.0172 37.8005C24.7302 37.0821 25.3968 36.3174 26.0137 35.5126C29.1759 31.3879 30.9425 26.2897 30.9425 20.9756V20.975H30.9498C30.9498 17.2029 30.0584 13.5414 28.4114 10.2592C28.1524 9.74309 27.8637 9.21942 27.5462 8.68965C26.1926 6.43189 24.4563 4.3883 22.3878 2.65808L25.0459 0C27.3171 1.94948 29.2374 4.24084 30.7541 6.77072C31.0996 7.34702 31.4322 7.95374 31.7511 8.58935C33.6547 12.3829 34.6849 16.6149 34.685 20.975H34.6924V20.9756C34.6924 27.114 32.6475 33.0086 28.9873 37.783C28.2778 38.7086 27.5037 39.5955 26.6685 40.4371C26.125 40.9846 25.5639 41.5061 24.9864 42L22.3283 39.3419L22.3283 39.3419Z" fill="#6FA0D0"/>
<path d="M5.91381 18.6327L8.60308 22.0135V19.67C8.60308 19.3435 8.55641 19.1225 8.46311 19.0073C8.33416 18.8523 8.11872 18.7768 7.8155 18.7823V18.6327H9.61567V18.7823C9.38516 18.8111 9.23152 18.8495 9.1519 18.8962C9.07232 18.9428 9.01057 19.0197 8.9667 19.1253C8.92278 19.231 8.90085 19.4134 8.90085 19.67V24.2089H8.76363L5.07822 19.67V23.1359C5.07822 23.4487 5.14958 23.66 5.29361 23.7698C5.43633 23.8809 5.60098 23.9358 5.78483 23.9358H5.91382V24.084H3.98055V23.9358C4.28102 23.9331 4.48959 23.8713 4.60758 23.7506C4.72557 23.6299 4.7846 23.4254 4.7846 23.1359V19.2886L4.66797 19.1431C4.55269 18.9991 4.45118 18.9044 4.36199 18.8577C4.27416 18.8125 4.14656 18.7878 3.98055 18.7823V18.6327H5.91382L5.91381 18.6327ZM7.89232 17.0329H8.105C8.10775 17.0864 8.1091 17.1317 8.1091 17.1701C8.1091 17.4651 8.02682 17.7011 7.85941 17.8808C7.6934 18.0606 7.49304 18.1511 7.25707 18.1511C7.08279 18.1511 6.86325 18.088 6.59984 17.9618C6.33638 17.8355 6.1594 17.7724 6.07156 17.7724C5.99063 17.7724 5.92338 17.7999 5.86989 17.8534C5.81636 17.9069 5.77935 18.0029 5.75737 18.1429H5.5241C5.51453 17.7944 5.59411 17.5213 5.76423 17.3224C5.93439 17.1248 6.14292 17.0247 6.39266 17.0247C6.47359 17.0247 6.54084 17.0329 6.59433 17.0493C6.66844 17.0713 6.7974 17.1248 6.97988 17.2099C7.25571 17.3361 7.45327 17.3992 7.57126 17.3992C7.63025 17.3992 7.68654 17.3746 7.74003 17.3265C7.79356 17.2785 7.84434 17.1811 7.89232 17.0329V17.0329Z" fill="url(#paint1_radial_5_14)"/>
<path d="M6.09873 18.4478L8.788 21.8286V19.4851C8.788 19.1585 8.74133 18.9376 8.64804 18.8224C8.51908 18.6673 8.30364 18.5919 8.00042 18.5974V18.4478H9.80059V18.5974C9.57008 18.6262 9.41644 18.6646 9.33682 18.7112C9.25724 18.7579 9.1955 18.8347 9.15162 18.9404C9.1077 19.046 9.08577 19.2285 9.08577 19.4851V24.0239H8.94855L5.26314 19.4851V22.951C5.26314 23.2638 5.3345 23.4751 5.47853 23.5849C5.62125 23.696 5.78591 23.7509 5.96975 23.7509H6.09875V23.8991H4.16547V23.7509C4.46594 23.7481 4.67451 23.6864 4.7925 23.5657C4.91049 23.4449 4.96953 23.2405 4.96953 22.951V19.1037L4.85289 18.9582C4.73762 18.8142 4.6361 18.7195 4.54691 18.6728C4.45908 18.6275 4.33148 18.6028 4.16547 18.5974V18.4478H6.09874L6.09873 18.4478ZM8.07724 16.8479H8.28992C8.29267 16.9015 8.29403 16.9467 8.29403 16.9851C8.29403 17.2802 8.21174 17.5161 8.04433 17.6959C7.87832 17.8756 7.67796 17.9662 7.44199 17.9662C7.26772 17.9662 7.04817 17.9031 6.78476 17.7768C6.5213 17.6506 6.34432 17.5875 6.25648 17.5875C6.17555 17.5875 6.1083 17.6149 6.05481 17.6685C6.00128 17.722 5.96427 17.818 5.94229 17.958H5.70902C5.69945 17.6095 5.77903 17.3364 5.94915 17.1374C6.11931 16.9399 6.32784 16.8397 6.57758 16.8397C6.65851 16.8397 6.72577 16.8479 6.77925 16.8644C6.85337 16.8863 6.98232 16.9399 7.16481 17.025C7.44063 17.1512 7.63819 17.2143 7.75618 17.2143C7.81518 17.2143 7.87146 17.1896 7.92495 17.1416C7.97848 17.0936 8.02926 16.9961 8.07724 16.8479V16.8479Z" fill="url(#paint2_radial_5_14)"/>
</g>
<defs>
<radialGradient id="paint0_radial_5_14" cx="0" cy="0" r="1" gradientUnits="userSpaceOnUse" gradientTransform="translate(7.05786 20.9756) scale(7.05791)">
<stop stop-color="#00003B"/>
<stop offset="1" stop-color="#002F64"/>
</radialGradient>
<radialGradient id="paint1_radial_5_14" cx="0" cy="0" r="1" gradientUnits="userSpaceOnUse" gradientTransform="translate(6.73981 20.6168) scale(3.59213)">
<stop stop-color="#00003B"/>
<stop offset="1" stop-color="#093F7D"/>
</radialGradient>
<radialGradient id="paint2_radial_5_14" cx="0" cy="0" r="1" gradientUnits="userSpaceOnUse" gradientTransform="translate(6.92473 20.4318) scale(3.44845)">
<stop stop-color="#B6D2ED"/>
<stop offset="0.611765" stop-color="#92B9DE"/>
<stop offset="1" stop-color="#6FA0D0"/>
</radialGradient>
<clipPath id="clip0_5_14">
<rect width="34.6924" height="42" fill="white"/>
</clipPath>
</defs>
</svg>
