<svg width="39" height="39" viewBox="0 0 39 39" fill="none" xmlns="http://www.w3.org/2000/svg">
<path fill-rule="evenodd" clip-rule="evenodd" d="M19.3826 0.090332C13.2185 0.13186 7.76389 3.33853 4.42903 8.2361H34.571C31.2144 3.30693 25.7147 0.090332 19.5018 0.090332H19.3826V0.090332Z" fill="#608AB4"/>
<path fill-rule="evenodd" clip-rule="evenodd" d="M3.35834 10.0065C1.79784 12.9267 0.985208 16.1881 0.99306 19.4992C0.99306 30.2133 9.28598 38.9098 19.5018 38.9098C29.7176 38.9098 38.0069 30.2133 38.0069 19.4992C38.0069 16.0506 37.1493 12.8141 35.6435 10.0065H3.35924H3.35834Z" fill="#375493"/>
<path fill-rule="evenodd" clip-rule="evenodd" d="M4.42903 8.23608C4.04152 8.80665 3.68442 9.39728 3.35924 10.0055H35.6435C35.3174 9.39725 34.9594 8.80661 34.571 8.23608H4.42903V8.23608Z" fill="#D6DDE3"/>
<path fill-rule="evenodd" clip-rule="evenodd" d="M27.4047 2.26599C27.328 2.2678 27.2458 2.28495 27.1583 2.31113C26.334 3.62738 26.3367 7.9878 26.3476 8.9312H26.353C27.5735 9.20203 29.1895 8.89057 29.2437 7.72238C29.3367 6.18314 29.4296 4.69085 28.6135 3.7321C27.8678 4.07155 28.0087 2.69391 27.7062 2.38516C27.6304 2.29849 27.5257 2.26419 27.4056 2.26689L27.4047 2.26599Z" fill="#7BBCE5"/>
<path fill-rule="evenodd" clip-rule="evenodd" d="M27.1583 2.31116C26.724 2.44477 26.1941 2.83928 25.9332 2.96657C25.7057 2.99095 25.2832 2.9738 24.9681 3.05414C24.291 3.22838 23.6754 3.64095 23.3197 4.29095C22.861 2.95755 21.8752 4.59699 20.707 5.5413C20.0597 5.0538 18.757 4.0815 17.5608 3.45588C16.5994 3.94248 15.5928 5.58824 14.9933 5.72727C14.3713 5.84373 13.4947 5.77512 13.13 6.21477C12.5233 6.8422 12.3356 7.55991 12.2191 8.23338C13.6419 8.73623 15.1342 8.75157 16.5569 8.55838C17.3649 8.36519 17.9409 8.63692 18.7724 8.60623C21.2974 8.71456 24.0319 8.40671 26.3467 8.93123C26.3367 7.98782 26.334 3.62741 27.1592 2.31206L27.1583 2.31116Z" fill="white"/>
<path fill-rule="evenodd" clip-rule="evenodd" d="M18.7263 4.93823C19.0297 5.85184 19.2933 6.76455 19.1922 7.67726C19.0838 8.2415 19.3249 8.20268 19.7753 7.97879C20.2186 7.73865 20.4524 7.47594 21.1051 7.25927C21.6107 7.12025 21.2523 6.7492 21.0113 6.49372C20.2908 5.81122 19.5072 5.38059 18.7263 4.93914V4.93823Z" fill="#7BBCE5"/>
<path fill-rule="evenodd" clip-rule="evenodd" d="M21.3173 10.0065C21.8481 17.0328 26.5922 17.8967 29.5777 16.4758C28.0854 15.007 28.6271 12.0124 30.2187 11.9799C33.1653 11.9077 32.3267 17.3831 32.3276 20.0408C33.9381 19.7149 33.8325 13.651 33.4903 10.0065H21.3173Z" fill="#294584"/>
<path fill-rule="evenodd" clip-rule="evenodd" d="M6.06035 10.0065L6.23278 11.8211C6.62278 12.5315 6.91257 13.2393 6.83132 13.9498C7.60139 13.7602 8.06 13.6618 8.47438 14.4463C10.2853 15.5685 12.006 15.7012 13.6997 15.536C14.0445 19.6129 13.9434 22.8927 13.799 27.7659C14.8281 29.4667 15.8573 31.0791 16.8865 32.779C17.476 33.8127 18.5124 34.1395 19.3258 32.9172L21.4139 31.9783V33.0165C22.4837 33.2846 23.5417 33.6917 23.0569 34.8004C22.6868 35.5163 22.8944 35.8349 23.9471 35.3565C24.8769 34.9051 25.4502 35.6047 25.9359 35.7284C25.2444 34.9954 25.8393 33.5527 25.861 32.0631C26.854 31.9729 27.987 31.0773 28.9801 30.987C31.0203 29.0163 31.3724 28.2823 31.3688 25.7365C31.5738 25.0765 31.8681 24.9023 31.7173 23.7558C31.8347 23.0453 31.9963 22.1172 32.1118 21.4067L32.3447 20.0381L32.3267 20.0408C32.3267 17.3831 33.1662 11.9086 30.2196 11.979C28.6271 12.0124 28.0854 15.007 29.5786 16.4758C29.2253 16.6441 28.8565 16.7774 28.4772 16.8739C28.5991 17.5672 28.0953 18.2777 27.4363 18.3075C26.7791 18.2497 25.8113 18.8988 25.1983 20.3884C24.2179 22.4449 23.326 20.6556 22.9685 20.1031C22.509 19.4965 23.0732 18.9322 21.8138 19.2988C20.9833 19.5542 19.9297 19.7231 19.6778 18.4745C18.6162 17.4011 17.5987 16.4595 16.5371 15.387C16.1128 14.8842 16.4658 14.4716 16.4694 14.2947V14.2766L16.4658 14.2685C16.4638 14.2616 16.4611 14.2549 16.4576 14.2486L16.4549 14.2432L16.4522 14.2405C16.4493 14.2374 16.4463 14.2344 16.4432 14.2315L16.4324 14.2233L16.426 14.2206C16.4215 14.2179 16.4152 14.217 16.4098 14.2152C15.9954 13.9552 15.4935 14.2685 14.9455 14.4951C13.5164 14.756 12.9585 14.5041 12.8041 13.7521C12.8122 12.5099 12.1099 12.6399 10.9624 12.8123C7.65556 13.2817 7.12111 12.1172 6.15695 10.0065H6.06035V10.0065Z" fill="#E0E9EA"/>
<path fill-rule="evenodd" clip-rule="evenodd" d="M6.15695 10.0065C7.12022 12.1163 7.65556 13.2808 10.9624 12.8123C12.109 12.639 12.8113 12.5099 12.8041 13.7512C12.9576 14.5041 13.5164 14.7551 14.9455 14.4942C15.4926 14.2685 15.9945 13.9552 16.4089 14.2143L16.427 14.2206L16.4315 14.2233L16.4432 14.2324L16.4522 14.2405L16.454 14.2432L16.4576 14.2486C16.4614 14.2549 16.4645 14.2615 16.4667 14.2685L16.4685 14.2775V14.2938C16.4658 14.4707 16.1128 14.8842 16.5371 15.3861C17.5988 16.4595 18.6153 17.4011 19.6779 18.4736C19.9306 19.7231 20.9833 19.5542 21.8138 19.2988C23.0732 18.9322 22.509 19.4965 22.9685 20.1022C23.326 20.6556 24.2179 22.4449 25.1983 20.3884C25.8122 18.8988 26.7782 18.2488 27.4372 18.3075C28.0963 18.2777 28.5991 17.5672 28.4781 16.8739C25.5486 17.6151 21.7867 16.2185 21.3173 10.0065H6.15695V10.0065Z" fill="#4D8AC0"/>
<path fill-rule="evenodd" clip-rule="evenodd" d="M16.0631 18.079C15.1098 18.1404 15.6072 21.311 15.711 22.8123C15.8528 24.2902 16.1832 23.9426 17.2205 23.298C17.6972 24.2604 17.4074 24.7975 16.733 25.4204C16.2301 25.8926 15.9422 26.5986 16.3782 27.4101C16.5109 27.6313 16.6228 27.7261 16.7781 28.0737C16.8819 28.2804 16.9831 28.489 17.0869 28.6948C17.2069 29.1516 17.0715 29.4351 16.8711 29.6797C16.686 29.9442 16.6499 30.2106 16.891 30.9418C17.0228 31.3661 16.6626 31.8735 17.2205 32.3195C17.4465 32.4969 17.6944 32.6447 17.9581 32.7591C17.7432 32.1362 17.7369 31.237 17.8416 30.4642C17.9129 29.7357 17.9626 29.2834 18.6306 28.7878C19.2138 28.4908 19.0513 26.9217 19.101 25.9883L19.1208 26.0018V25.9883C20.3685 25.7265 19.6742 24.7334 19.2915 23.781L16.2419 18.1025C16.1874 18.0861 16.1308 18.0782 16.074 18.079H16.0631V18.079Z" fill="#D6DDE3"/>
<path fill-rule="evenodd" clip-rule="evenodd" d="M16.2419 18.1007L19.2915 23.781C19.6742 24.7334 20.3685 25.7256 19.1208 25.9883C19.2319 26.6527 20.0597 27.2314 20.977 27.1529C21.9312 27.0924 22.6254 27.8029 22.9396 28.5197C22.9811 27.7288 23.0786 26.9443 23.2718 26.1688C23.3946 25.7852 24.0933 25.4457 23.5129 24.9347C21.162 22.3591 18.8951 20.3351 16.352 18.1413C16.3163 18.1256 16.2795 18.1123 16.2419 18.1016V18.1007Z" fill="#608AB4"/>
<path fill-rule="evenodd" clip-rule="evenodd" d="M19.1019 25.9883C19.0522 26.9218 19.2138 28.4908 18.6306 28.7878C17.9626 29.2835 17.9129 29.7358 17.8416 30.4643C17.7369 31.238 17.7423 32.139 17.959 32.7619C18.1789 32.8551 18.4093 32.9218 18.6451 32.9605C19.0486 32.9966 19.3023 33.0959 20.1536 32.9397C20.8993 32.8549 21.3471 32.4919 22.1993 32.3647C22.6642 32.2735 22.9793 32.0965 22.954 31.3897C22.9179 30.4255 22.8908 29.4685 22.9396 28.5197C22.6254 27.8029 21.9312 27.0933 20.9769 27.1538C20.0697 27.2306 19.2508 26.6663 19.1244 26.0109V26.0055C19.1172 25.9992 19.1082 25.9946 19.1019 25.9874V25.9883Z" fill="#236798"/>
<path fill-rule="evenodd" clip-rule="evenodd" d="M31.6351 25.0476C31.5566 25.2643 31.4546 25.4566 31.3688 25.7364C31.3724 28.2823 31.0203 29.0162 28.9801 30.987C28.962 30.9915 28.3779 32.3529 27.8823 32.7086C27.0454 33.3234 27.0969 33.8822 26.7872 34.5548C26.5615 34.8942 26.251 34.9493 26.0262 34.8879C25.8862 34.7768 25.7445 34.7254 25.6037 34.5575C25.5946 34.8319 25.6145 35.0829 25.6858 35.3023L25.6949 35.3221V35.3248C25.7337 35.4043 25.7707 35.4855 25.8077 35.565L25.814 35.574V35.5758C25.8474 35.6282 25.8862 35.6787 25.9296 35.7257L25.8899 35.7148C26.7475 37.078 27.9572 37.5041 29.51 36.9679C30.1697 36.6878 30.7898 36.3224 31.3544 35.8809C31.8058 35.4548 32.3429 34.655 31.4961 34.6026C31.3751 34.571 31.3083 34.5394 31.2749 34.506L31.2695 34.5006C31.2659 34.497 31.2632 34.4907 31.2605 34.4861C31.2568 34.4802 31.2538 34.4738 31.2515 34.4672L31.2496 34.4609V34.4446C31.2515 34.3227 31.4835 34.1494 31.3056 33.7982C31.1846 33.2602 31.7001 32.751 32.0694 32.6156L31.3056 30.9581C31.3237 30.5961 32.0405 30.4047 31.924 29.7276C32.1317 28.0259 32.4115 25.499 31.6351 25.0476V25.0476Z" fill="#608AB4"/>
<path fill-rule="evenodd" clip-rule="evenodd" d="M27.0563 18.3445C26.4424 18.5088 25.7012 19.1661 25.1983 20.3875C24.9681 20.8696 24.7424 21.1404 24.5285 21.2659C24.5501 23.3658 25.0521 24.8608 26.0885 25.6805C25.7815 26.8947 25.4746 28.5694 26.0325 29.5841C25.09 29.2871 25.4737 31.173 25.1956 31.9665C24.7244 33.2864 24.31 33.2286 23.8676 33.3433C24.2712 33.8028 24.7912 34.2903 25.5694 34.5774V34.5828C25.5722 34.5908 25.5762 34.5984 25.5811 34.6054C25.6389 34.6929 25.8998 34.7886 26.0262 34.8879C26.2519 34.9493 26.5615 34.8943 26.7863 34.5539C27.0978 33.8822 27.0454 33.3243 27.8814 32.7086C28.3662 32.3611 28.9358 31.052 28.9792 30.987C27.3244 30.0608 26.5417 28.2968 26.8089 26.5977C26.8865 26.1283 27.1944 25.6029 26.7818 24.8472C26.2862 22.7709 26.6013 20.3541 27.0563 18.3436V18.3445Z" fill="#236798"/>
</svg>
