<svg width="45" height="45" viewBox="0 0 45 45" fill="none" xmlns="http://www.w3.org/2000/svg">
<path d="M20.9591 9.21051C17.8359 9.22135 14.8446 10.471 12.6419 12.6852C10.4392 14.8994 9.20512 17.8972 9.21054 21.0204C9.21597 24.1436 10.4605 27.137 12.6708 29.3436C14.8812 31.5501 17.8768 32.7894 21 32.7894C24.1232 32.7894 27.1188 31.5501 29.3292 29.3436C31.5395 27.137 32.784 24.1436 32.7895 21.0204C32.7949 17.8972 31.5608 14.8994 29.3581 12.6852C27.1554 10.471 24.1641 9.22135 21.0409 9.21051" fill="black"/>
<path d="M20.9591 4.21637C16.5113 4.22722 12.2498 6.00308 9.11049 9.15386C5.97122 12.3046 4.21096 16.5727 4.21638 21.0204C4.22181 25.4682 5.99247 29.7319 9.13942 32.875C12.2864 36.0181 16.5522 37.7836 21 37.7836C25.4477 37.7836 29.7136 36.0181 32.8606 32.875C36.0075 29.7319 37.7782 25.4682 37.7836 21.0204C37.789 16.5727 36.0288 12.3046 32.8895 9.15386C29.7502 6.00308 25.4887 4.22722 21.0409 4.21637" stroke="black" stroke-width="4.74854"/>
<path d="M20.9591 1.18713C19.2473 1.19797 17.6096 1.88697 16.4049 3.10315C15.2002 4.31933 14.5268 5.96349 14.5322 7.67531C14.5376 9.38713 15.2214 11.027 16.4338 12.2355C17.6462 13.4441 19.2882 14.1227 21 14.1227C22.7118 14.1227 24.3538 13.4441 25.5662 12.2355C26.7786 11.027 27.4624 9.38713 27.4678 7.67531C27.4732 5.96349 26.7998 4.31933 25.5951 3.10315C24.3904 1.88697 22.7527 1.19797 21.0409 1.18713H20.9591Z" fill="black"/>
</svg>
