<svg width="37" height="37" viewBox="0 0 37 37" fill="none" xmlns="http://www.w3.org/2000/svg">
<path fill-rule="evenodd" clip-rule="evenodd" d="M17.4782 12.8079C18.1239 20.8965 19.5365 28.7277 23.7511 36.2686L25.3438 36.2809L35.4269 27.2857L25.8167 3.00293L18.8896 9.61882L17.4782 12.8079V12.8079Z" fill="#FDFCF8"/>
<path fill-rule="evenodd" clip-rule="evenodd" d="M9.41417 12.8153C10.0611 20.905 11.715 28.8404 15.9296 36.3801L18.4216 36.4021L26.0127 26.8802L17.7539 3.01025L10.8268 9.62737L9.41417 12.8165V12.8153Z" fill="#F4EED7"/>
<path fill-rule="evenodd" clip-rule="evenodd" d="M0.149467 12.6437C0.808607 21.1317 3.45864 28.7338 6.57669 36.1302L9.86013 36.0897L18.4853 26.2835L8.48794 2.83752L1.56086 9.45464L0.149467 12.6425V12.6437Z" fill="#E9DDAF"/>
<path d="M26.259 0.619873C22.9278 3.84206 19.6345 7.03729 19.6345 7.03729L20.818 9.44474C22.423 7.85448 24.0353 6.45534 25.5729 4.9006C28.8122 12.0115 31.0187 17.7416 33.7325 25.318C34.622 27.7781 34.4406 27.8884 32.3162 29.2189C28.9029 30.9158 27.8235 32.0294 23.756 36.3567H26.5395C29.9394 33.2816 31.2013 32.1973 35.4587 29.954C36.9657 29.0841 37.1728 27.9864 36.554 26.2785C34.5619 20.7408 30.2457 8.80765 26.259 0.619873V0.619873Z" fill="#5F96D3"/>
<path fill-rule="evenodd" clip-rule="evenodd" d="M17.575 0.697144C15.1394 2.34009 13.2587 4.70834 11.1392 6.73844L12.0091 9.51098C13.6679 8.20373 15.1112 6.62695 16.6034 5.13469L24.6467 25.3119C25.111 26.678 24.3808 27.8934 22.913 29.2165C21.1549 30.6292 17.5346 33.9236 15.8941 36.4328H18.391C21.0104 33.7423 21.4833 33.3772 24.4678 30.7933C26.4697 28.7498 28.278 27.7035 27.3347 25.0841L17.575 0.698369V0.697144Z" fill="#2A62A1"/>
<path fill-rule="evenodd" clip-rule="evenodd" d="M9.35169 0.567265C8.70235 0.785345 8.16205 1.20435 7.65483 1.64541C0.784105 8.26008 0.507218 8.53942 0.507218 8.53942C0.145795 8.87389 0.115165 9.36518 0.120066 9.85892L0.14947 12.6425C0.14947 12.6425 3.32265 9.55753 8.06036 4.99746C10.6112 11.6403 13.2734 18.2501 15.8941 24.8709C16.253 25.8706 15.3942 26.6902 14.3063 27.7843C12.8018 29.2508 9.65675 32.2709 6.43824 36.3029H9.66533L17.4219 27.7966C18.1594 26.7821 19.0758 25.791 18.6899 24.8709L9.35169 0.56604V0.567265Z" fill="#15304F"/>
</svg>
