<svg width="42" height="42" viewBox="0 0 42 42" fill="none" xmlns="http://www.w3.org/2000/svg">
<path opacity="0.2" d="M1.46512 6.34887C1.46512 5.31268 1.87675 4.31892 2.60945 3.58622C3.34215 2.85352 4.3359 2.44189 5.3721 2.44189H36.6279C37.6641 2.44189 38.6579 2.85352 39.3906 3.58622C40.1233 4.31892 40.5349 5.31268 40.5349 6.34887V37.6047C40.5349 38.6409 40.1233 39.6346 39.3906 40.3673C38.6579 41.1 37.6641 41.5117 36.6279 41.5117H5.3721C4.3359 41.5117 3.34215 41.1 2.60945 40.3673C1.87675 39.6346 1.46512 38.6409 1.46512 37.6047V6.34887Z" fill="black"/>
<path d="M36.623 1.87048H5.3721C3.4382 1.87048 1.87047 3.43822 1.87047 5.37211V36.623C1.87047 38.5569 3.4382 40.1247 5.3721 40.1247H36.623C38.5569 40.1247 40.1247 38.5569 40.1247 36.623V5.37211C40.1247 3.43822 38.5569 1.87048 36.623 1.87048Z" fill="white"/>
<path d="M36.6279 2.28067C37.4474 2.28196 38.233 2.60808 38.8124 3.18754C39.3919 3.76701 39.718 4.55257 39.7193 5.37206V36.6279C39.718 37.4474 39.3919 38.2329 38.8124 38.8124C38.233 39.3919 37.4474 39.718 36.6279 39.7193H5.3721C4.5526 39.718 3.76704 39.3919 3.18758 38.8124C2.60811 38.2329 2.28199 37.4474 2.2807 36.6279V5.37206C2.28199 4.55257 2.60811 3.76701 3.18758 3.18754C3.76704 2.60808 4.5526 2.28196 5.3721 2.28067H36.6279ZM36.6279 1.46509H5.3721C4.3359 1.46509 3.34215 1.87671 2.60945 2.60941C1.87675 3.34212 1.46512 4.33587 1.46512 5.37206V36.6279C1.46512 37.6641 1.87675 38.6578 2.60945 39.3905C3.34215 40.1232 4.3359 40.5349 5.3721 40.5349H36.6279C37.6641 40.5349 38.6579 40.1232 39.3906 39.3905C40.1233 38.6578 40.5349 37.6641 40.5349 36.6279V5.37206C40.5349 4.33587 40.1233 3.34212 39.3906 2.60941C38.6579 1.87671 37.6641 1.46509 36.6279 1.46509V1.46509Z" fill="#EAECF0"/>
<path fill-rule="evenodd" clip-rule="evenodd" d="M34.5426 13.484C33.9951 13.5182 33.473 13.727 33.053 14.0798C32.5245 14.6421 32.1173 15.307 31.8565 16.0333L25.576 30.4842C25.5337 30.6177 25.4181 30.6845 25.2293 30.6845C25.1587 30.686 25.0891 30.6682 25.0279 30.6329C24.9668 30.5976 24.9165 30.5462 24.8826 30.4842L21.3614 22.9536L17.3079 30.4794C17.274 30.5413 17.2237 30.5927 17.1625 30.628C17.1014 30.6633 17.0317 30.6811 16.9612 30.6796C16.8882 30.6883 16.8143 30.6736 16.7502 30.6376C16.6862 30.6016 16.6352 30.5462 16.6046 30.4794L10.4365 16.0235C10.1742 15.3208 9.75885 14.6852 9.22046 14.1629C8.70266 13.7717 8.0808 13.5423 7.43302 13.5035C7.39586 13.5013 7.35974 13.4904 7.32752 13.4718C7.2953 13.4531 7.26788 13.4272 7.24744 13.3961C7.19046 13.3275 7.15935 13.2411 7.15953 13.1519C7.15953 12.9175 7.22465 12.8003 7.35488 12.8003C7.90511 12.8003 8.47976 12.8247 9.07883 12.8736C9.6779 12.9224 10.2037 12.9468 10.6563 12.9468C11.1577 12.9468 11.7486 12.9224 12.4291 12.8736C13.1095 12.8247 13.7412 12.8003 14.3239 12.8003C14.4542 12.8003 14.5193 12.9175 14.5193 13.1519C14.5193 13.3863 14.4786 13.5035 14.3972 13.5035C13.9316 13.5173 13.4801 13.6667 13.0981 13.9333C12.942 14.0427 12.8156 14.1893 12.7303 14.3599C12.6451 14.5304 12.6036 14.7195 12.6098 14.9101C12.624 15.1729 12.6904 15.4302 12.8051 15.667L17.9281 27.388L20.8242 21.801L18.1235 16.0235C17.8308 15.3011 17.4271 14.6288 16.927 14.031C16.5279 13.6979 16.0301 13.5056 15.5107 13.484C15.4765 13.4803 15.4437 13.4687 15.4149 13.45C15.3861 13.4314 15.362 13.4062 15.3446 13.3766C15.2925 13.3059 15.2651 13.2201 15.2665 13.1324C15.2665 12.898 15.3235 12.7808 15.4374 12.7808C15.943 12.7778 16.4484 12.8022 16.9514 12.854C17.4217 12.9051 17.8946 12.9295 18.3677 12.9273C18.8593 12.9273 19.3802 12.9029 19.9305 12.854C20.4807 12.8052 21.0391 12.7808 21.6056 12.7808C21.7358 12.7808 21.8009 12.898 21.8009 13.1324C21.8009 13.3668 21.7602 13.484 21.6788 13.484C20.5784 13.5589 20.0281 13.8845 20.0281 14.4608C20.0782 14.8715 20.2093 15.2683 20.4139 15.628L22.2014 19.3298L23.9742 15.9454C24.1891 15.5772 24.3161 15.1644 24.3453 14.7391C24.3453 13.9675 23.7951 13.5556 22.6946 13.5035C22.597 13.5035 22.5481 13.3863 22.5481 13.1519C22.5483 13.0667 22.5738 12.9834 22.6214 12.9126C22.6702 12.8377 22.7191 12.8003 22.7679 12.8003C23.1619 12.8003 23.6502 12.8247 24.233 12.8736C24.8158 12.9224 25.2667 12.9468 25.5858 12.9468C25.8398 12.9468 26.2126 12.9256 26.7042 12.8833C27.3293 12.8247 27.8502 12.7954 28.267 12.7954C28.3646 12.7954 28.4135 12.8963 28.4135 13.0982C28.4135 13.3652 28.3239 13.4987 28.1449 13.4987C27.5907 13.5356 27.0571 13.723 26.6016 14.0408C25.9965 14.6144 25.5002 15.2928 25.1365 16.0431L22.7679 20.5117L25.9716 27.1829L30.6991 15.9503C30.8515 15.5915 30.9344 15.207 30.9433 14.8173C30.9433 13.9936 30.393 13.5573 29.2926 13.5084C29.1949 13.5084 29.146 13.3912 29.146 13.1568C29.146 12.9224 29.2193 12.8052 29.3658 12.8052C29.7695 12.8052 30.2465 12.8296 30.7967 12.8784C31.347 12.9273 31.7735 12.9517 32.0763 12.9517C32.4956 12.949 32.9146 12.9245 33.3314 12.8784C33.7771 12.823 34.2254 12.7904 34.6744 12.7808C34.7884 12.7808 34.8453 12.8817 34.8453 13.0836C34.8457 13.184 34.8131 13.2818 34.7526 13.3619C34.7302 13.3979 34.6994 13.4278 34.6628 13.4491C34.6262 13.4704 34.5849 13.4824 34.5426 13.484V13.484Z" fill="#000222"/>
</svg>