<svg width="43" height="37" viewBox="0 0 43 37" fill="none" xmlns="http://www.w3.org/2000/svg">
<path d="M21.36 1.06006C20.89 1.14006 20.39 1.48006 19.91 2.13006C19.51 2.68006 19.11 3.43006 18.77 4.36006H23.93C23.65 3.56157 23.2632 2.80469 22.78 2.11006C22.3 1.48006 21.81 1.14006 21.38 1.07006L21.36 1.06006ZM22.96 1.20006C23.1 1.35006 23.24 1.50006 23.36 1.67006C23.86 2.37006 24.32 3.27006 24.71 4.37006H28.31C26.9176 2.76116 25.0399 1.64857 22.96 1.20006V1.20006ZM19.72 1.20006C17.72 1.60006 15.9 2.73006 14.42 4.36006H17.98C18.3607 3.20562 18.9505 2.13107 19.72 1.19006V1.20006ZM17.07 1.36006C15.17 1.98006 13.43 3.01006 11.97 4.36006H13.45C14.4364 3.12062 15.669 2.09913 17.07 1.36006V1.36006ZM29.27 4.36006H30.77C29.3057 3.01921 27.5696 2.00964 25.68 1.40006C27.02 2.10006 28.22 3.10006 29.24 4.36006H29.27ZM11.2 5.10006C10.1033 6.28396 9.22323 7.65144 8.6 9.14006H10.9C11.3565 7.69917 12.0309 6.3367 12.9 5.10006H11.2V5.10006ZM11.67 9.14006H16.87C17.07 7.64006 17.37 6.28006 17.73 5.10006H13.8C12.883 6.327 12.1643 7.69026 11.67 9.14006V9.14006ZM18.5 5.10006C18.1025 6.4219 17.8083 7.77263 17.62 9.14006H25.08C24.8905 7.77113 24.5895 6.41996 24.18 5.10006H18.5V5.10006ZM24.96 5.10006C25.32 6.28006 25.62 7.64006 25.83 9.14006H31.03C30.5519 7.68333 29.8318 6.31755 28.9 5.10006H24.96V5.10006ZM29.82 5.10006C30.65 6.30006 31.32 7.65006 31.82 9.14006H34.12C33.492 7.64692 32.6013 6.27857 31.49 5.10006H29.8H29.82ZM8.3 9.87006C7.75888 11.3884 7.48154 12.9882 7.48 14.6001H10.05C10.05 12.9501 10.27 11.3601 10.67 9.87006H8.3ZM11.44 9.87006C11.006 11.4092 10.7873 13.0009 10.79 14.6001H16.51C16.51 12.9301 16.61 11.3401 16.77 9.87006H11.43H11.44ZM17.52 9.87006C17.3431 11.4405 17.2563 13.0197 17.26 14.6001H25.46C25.46 12.9301 25.36 11.3401 25.18 9.87006H17.52V9.87006ZM25.92 9.87006C26.1 11.3501 26.19 12.9301 26.19 14.6001H31.91C31.91 12.9401 31.68 11.3501 31.26 9.87006H25.92ZM32.04 9.87006C32.44 11.3701 32.66 12.9501 32.66 14.6001H35.23C35.23 13.0001 34.95 11.4001 34.4 9.87006H32.04V9.87006ZM1 16.0001V17.4201H42V16.0001H1ZM2.4 18.9001V32.9201H7.84V18.9201H2.4V18.9001ZM13.23 18.9001V32.9201H18.66V18.9201H13.23V18.9001ZM24.05 18.9001V32.9201H29.48V18.9201H24.05V18.9001ZM34.87 18.9001V32.9201H40.31V18.9201H34.88L34.87 18.9001ZM1 35.4801H42V34.0801H1V35.4801Z" fill="#006499"/>
</svg>
