<svg width="49" height="49" viewBox="0 0 49 49" fill="none" xmlns="http://www.w3.org/2000/svg">
<path d="M5.63593 36.1444H7.03327V12.8555H5.63593V36.1444ZM8.43061 36.1444H12.6226V12.8555H8.43061V36.1444ZM14.02 12.8555V36.1444H18.212V12.8555H14.02Z" fill="#990000"/>
<path d="M39.1721 36.1444H40.5694V12.8555H39.1721V36.1444ZM41.9667 12.8555V36.1444H43.3641V12.8555H41.9667ZM19.6093 36.1444H21.0067V12.8555H19.6093V36.1444ZM22.404 12.8555V36.1444H23.8013V12.8555H22.404Z" fill="#339966"/>
<path d="M25.1987 36.1444H29.3907V12.8555H25.1987V36.1444ZM30.788 36.1444H32.1854V12.8555H30.788V36.1444ZM33.5827 12.8555V36.1444H37.7747V12.8555H33.5827Z" fill="#006699"/>
</svg>
